<svg xmlns="http://www.w3.org/2000/svg" width="32" height="32" fill="none"><path stroke="url(#a)" stroke-linecap="round" stroke-linejoin="round" stroke-width="2.667" d="M16 17.333a1.333 1.333 0 1 0 0-2.666 1.333 1.333 0 0 0 0 2.666Z"/><path stroke="url(#b)" stroke-linecap="round" stroke-linejoin="round" stroke-width="2.667" d="M26.933 26.933c2.72-2.706.027-9.813-6-15.866-6.053-6.027-13.16-8.72-15.866-6-2.72 2.706-.027 9.813 6 15.866 6.053 6.027 13.16 8.72 15.866 6Z"/><path stroke="url(#c)" stroke-linecap="round" stroke-linejoin="round" stroke-width="2.667" d="M20.933 20.933c6.027-6.053 8.72-13.16 6-15.866-2.706-2.72-9.813-.027-15.867 6-6.026 6.053-8.72 13.16-6 15.866 2.707 2.72 9.814.027 15.867-6Z"/><defs><linearGradient id="a" x1="16" x2="16" y1="14.667" y2="17.333" gradientUnits="userSpaceOnUse"><stop stop-color="#00FFAB"/><stop offset="1" stop-color="#007F56"/></linearGradient><linearGradient id="b" x1="16" x2="16" y1="4.006" y2="27.994" gradientUnits="userSpaceOnUse"><stop stop-color="#00FFAB"/><stop offset="1" stop-color="#007F56"/></linearGradient><linearGradient id="c" x1="16" x2="16" y1="4.006" y2="27.994" gradientUnits="userSpaceOnUse"><stop stop-color="#00FFAB"/><stop offset="1" stop-color="#007F56"/></linearGradient></defs></svg>