<svg width="24" height="24" viewBox="0 0 24 24" fill="none" xmlns="http://www.w3.org/2000/svg">
<path d="M23.415 2.00909C23.2404 1.93299 23.0468 1.90667 22.8571 1.93327C22.6674 1.95986 22.4896 2.03825 22.345 2.15909C18.845 5.06562 15.88 3.65676 12.4438 2.02349C8.88375 0.330219 4.8475 -1.58626 0.345 2.15909C0.237419 2.24862 0.150991 2.35916 0.0914936 2.48334C0.0319966 2.60751 0.000803345 2.74245 0 2.87912V23.04C0 23.2946 0.105357 23.5388 0.292893 23.7188C0.48043 23.8989 0.734784 24 1 24C1.26522 24 1.51957 23.8989 1.70711 23.7188C1.89464 23.5388 2 23.2946 2 23.04V17.7321C5.34875 15.1928 8.23375 16.5621 11.5562 18.1414C15.1175 19.8322 19.1525 21.7487 23.655 18.0058C23.7626 17.9162 23.849 17.8057 23.9085 17.6815C23.968 17.5573 23.9992 17.4224 24 17.2857V2.87912C23.9993 2.69559 23.9438 2.51609 23.8402 2.36189C23.7365 2.20769 23.5889 2.08525 23.415 2.00909ZM22 4.7512V9.6294C20.25 10.9567 18.625 11.2159 17 10.9351V5.68004C18.7285 5.93927 20.497 5.61074 22 4.7512ZM15 5.20242V10.3626C14.1675 10.0422 13.3212 9.6426 12.4438 9.22499C11.3413 8.70057 10.1938 8.15574 9 7.76333V2.60311C9.8325 2.92233 10.6788 3.32314 11.5562 3.74076C12.6587 4.26518 13.8075 4.81 15 5.20242ZM7 2.02829V7.28211C5.27137 7.02334 3.50288 7.35229 2 8.21215V3.33274C3.75 2.00549 5.375 1.74748 7 2.02829ZM5.8225 14.3996C4.47692 14.4019 3.15671 14.7513 2 15.4112V10.533C3.75 9.20579 5.375 8.94658 7 9.22739V14.4836C6.61011 14.4285 6.21659 14.4004 5.8225 14.3996ZM9 14.96V9.79981C9.8325 10.119 10.6788 10.5198 11.5562 10.9375C12.6587 11.4619 13.8062 12.0055 15 12.3979V17.5581C14.1675 17.2377 13.3212 16.8381 12.4438 16.4205C11.3413 15.8961 10.1925 15.3524 9 14.96ZM17 18.1342V12.8779C17.3898 12.9339 17.7833 12.9627 18.1775 12.9643C19.5235 12.9603 20.8437 12.6093 22 11.9479V16.8297C20.25 18.157 18.625 18.415 17 18.1342Z" fill="url(#paint0_linear_37_9)"/>
<defs>
<linearGradient id="paint0_linear_37_9" x1="12" y1="0" x2="12" y2="24" gradientUnits="userSpaceOnUse">
<stop stop-color="#00FFAB"/>
<stop offset="1" stop-color="#007F56"/>
</linearGradient>
</defs>
</svg>
