<svg width="29" height="24" viewBox="0 0 29 24" fill="none" xmlns="http://www.w3.org/2000/svg">
<path d="M25.6538 3.13043H21.789L19.8887 0.464348C19.7869 0.321589 19.649 0.204526 19.4873 0.123529C19.3256 0.0425324 19.145 0.00010305 18.9615 0H10.0385C9.85502 0.00010305 9.67444 0.0425324 9.51271 0.123529C9.35098 0.204526 9.21311 0.321589 9.1113 0.464348L7.20957 3.13043H3.34615C2.4587 3.13043 1.60759 3.46025 0.980066 4.04732C0.35254 4.63439 0 5.43063 0 6.26087V20.8696C0 21.6998 0.35254 22.496 0.980066 23.0831C1.60759 23.6702 2.4587 24 3.34615 24H25.6538C26.5413 24 27.3924 23.6702 28.0199 23.0831C28.6475 22.496 29 21.6998 29 20.8696V6.26087C29 5.43063 28.6475 4.63439 28.0199 4.04732C27.3924 3.46025 26.5413 3.13043 25.6538 3.13043ZM26.7692 20.8696C26.7692 21.1463 26.6517 21.4117 26.4425 21.6074C26.2334 21.8031 25.9497 21.913 25.6538 21.913H3.34615C3.05034 21.913 2.76663 21.8031 2.55746 21.6074C2.34828 21.4117 2.23077 21.1463 2.23077 20.8696V6.26087C2.23077 5.98412 2.34828 5.71871 2.55746 5.52302C2.76663 5.32733 3.05034 5.21739 3.34615 5.21739H7.80769C7.99137 5.2175 8.17223 5.17518 8.33422 5.09417C8.49621 5.01316 8.63431 4.89599 8.73625 4.75304L10.6352 2.08696H18.3634L20.2637 4.75304C20.3657 4.89599 20.5038 5.01316 20.6658 5.09417C20.8278 5.17518 21.0086 5.2175 21.1923 5.21739H25.6538C25.9497 5.21739 26.2334 5.32733 26.4425 5.52302C26.6517 5.71871 26.7692 5.98412 26.7692 6.26087V20.8696ZM14.5 7.30435C13.2867 7.30435 12.1006 7.64094 11.0918 8.27157C10.083 8.90219 9.29667 9.79852 8.83235 10.8472C8.36804 11.8959 8.24655 13.0498 8.48326 14.1631C8.71996 15.2764 9.30423 16.299 10.1622 17.1017C11.0201 17.9043 12.1132 18.4509 13.3032 18.6723C14.4932 18.8938 15.7267 18.7801 16.8476 18.3457C17.9686 17.9114 18.9267 17.1758 19.6007 16.232C20.2748 15.2882 20.6346 14.1786 20.6346 13.0435C20.6328 11.5219 19.9859 10.0631 18.8358 8.98721C17.6857 7.91128 16.1264 7.30607 14.5 7.30435ZM14.5 16.6957C13.7279 16.6957 12.9731 16.4815 12.3311 16.0801C11.6892 15.6788 11.1888 15.1085 10.8933 14.4411C10.5978 13.7738 10.5205 13.0394 10.6712 12.331C10.8218 11.6225 11.1936 10.9718 11.7396 10.461C12.2855 9.95024 12.9811 9.6024 13.7384 9.46148C14.4957 9.32056 15.2806 9.39288 15.9939 9.66931C16.7073 9.94573 17.317 10.4138 17.7459 11.0144C18.1749 11.615 18.4038 12.3211 18.4038 13.0435C18.4038 14.0121 17.9925 14.941 17.2604 15.626C16.5283 16.3109 15.5354 16.6957 14.5 16.6957Z" fill="url(#paint0_linear_37_12)"/>
<defs>
<linearGradient id="paint0_linear_37_12" x1="14.5" y1="0" x2="14.5" y2="24" gradientUnits="userSpaceOnUse">
<stop stop-color="#00FFAB"/>
<stop offset="1" stop-color="#007F56"/>
</linearGradient>
</defs>
</svg>
