<svg width="80" height="80" viewBox="0 0 80 80" fill="none" xmlns="http://www.w3.org/2000/svg">
<path d="M13.6449 79.4381L11.8495 78.9018L9.81474 77.8417L7.77998 76.7817L5.25506 74.2641L2.73014 71.7465L1.83125 70.013L0.932356 68.2794L0.466175 66.9253L0 65.5713V64.891V64.2108H0.566387H1.13277L1.67091 65.706L2.20905 67.2011L3.18242 69.115L4.15578 71.0288L6.32696 73.1891L8.49813 75.3494L10.4132 76.3379L12.3283 77.3263L14.3032 77.9634L16.2781 78.6005V79.155V79.7096L15.8995 79.8548L15.5208 80L15.4805 79.9872L15.4403 79.9744L13.6449 79.4381ZM15.9964 79.151L15.919 78.7806L13.8728 78.0946L11.8265 77.4087L10.56 76.7094L9.29344 76.0102L7.84103 74.9549L6.38862 73.8996L5.02469 72.282L3.66077 70.6643L2.77003 68.8632L1.8793 67.0621L1.45565 65.8159L1.03199 64.5696L0.635687 64.4923L0.239386 64.4149V65.0382V65.6616L0.965192 67.5425L1.691 69.4233L2.60285 70.8242L3.51471 72.225L4.66113 73.491L5.80755 74.7569L7.15284 75.7843L8.49813 76.8117L9.68718 77.5021L10.8762 78.1925L12.6795 78.8436L14.4827 79.4948L15.2783 79.5081L16.0738 79.5215L15.9964 79.151ZM64.1363 79.6188L63.8236 79.2422L64.0662 78.8578L64.3088 78.4735L65.0099 78.2516L65.7109 78.0298L67.5024 77.3251L69.2939 76.6205L71.2888 75.2939L73.2837 73.9674L74.5776 72.3998L75.8715 70.8322L76.8137 69.0167L77.756 67.2011L78.1616 65.954L78.5673 64.7069L78.9017 64.4295L79.2361 64.1522L79.6181 64.469L80 64.7858L79.8481 65.735L79.6962 66.6843L78.6371 68.8896L77.578 71.0949L76.3798 72.5869L75.1816 74.079L73.7647 75.3051L72.3479 76.5312L70.8248 77.4328L69.3017 78.3345L67.5063 79.0167L65.7109 79.6989L65.08 79.8472L64.4491 79.9954L64.1363 79.6188ZM67.5568 78.7459L69.1634 78.1523L70.9082 77.1047L72.653 76.0572L74.5943 74.1411L76.5356 72.225L77.619 70.3631L78.7024 68.5011L79.2366 66.8407L79.7709 65.1802L79.6231 64.7952L79.4752 64.4102L79.1804 64.5084L78.8856 64.6066L78.392 66.0235L77.8984 67.4404L76.8373 69.4738L75.7761 71.5073L73.8555 73.4255L71.9349 75.3437L70.1395 76.3487L68.3441 77.3537L66.3713 78.0368L64.3986 78.7198L64.2472 78.8711L64.0958 79.0224L64.2292 79.37L64.3627 79.7175L65.1565 79.5285L65.9503 79.3395L67.5568 78.7459ZM15.4072 75.2198L13.6985 74.7722L12.4149 74.1243L11.1314 73.4764L10.1727 72.8198L9.21411 72.1632L7.954 70.8675L6.69388 69.5719L6.07857 68.6669L5.46327 67.762L5.57516 67.6502L5.68705 67.5384L6.29916 68.5822L6.91127 69.626L8.55554 71.1762L10.1998 72.7263L12.2324 73.7325L14.2649 74.7388L16.1267 75.1425L17.9885 75.5463L18.1969 75.2094L18.4052 74.8726L18.1196 74.5057L17.8341 74.1388L18.248 74.463L18.6619 74.7872L18.4191 75.2405L18.1763 75.6938L17.6461 75.6807L17.116 75.6675L15.4072 75.2198ZM62.2398 75.335V75.2154H62.3595H62.4792V75.335V75.4546H62.3595H62.2398V75.335ZM64.5855 75.0087L66.0933 74.5589L67.919 73.6572L69.7448 72.7554L71.6063 70.9224L73.4678 69.0893L74.4457 67.0528L75.4235 65.0163L75.4746 64.3239L75.5257 63.6314L75.1347 63.5501L74.7438 63.4688L74.1405 65.0287L73.5373 66.5886L72.423 68.2637L71.3087 69.9388L70.3346 70.772L69.3606 71.6052L67.5301 72.5569L65.6996 73.5087L64.1492 73.923L62.5989 74.3373L62.2997 74.7024L62.0005 75.0676V74.8119V74.5563L62.2997 74.3298L62.5989 74.1033L64.1492 73.6863L65.6996 73.2694L67.5241 72.3208L69.3487 71.3721L70.493 70.2436L71.6372 69.115L72.4605 67.8454L73.2837 66.5758L73.839 65.0997L74.3942 63.6236L74.7759 63.3829L75.1576 63.1423L75.5478 63.5323L75.9381 63.9224L75.6391 64.8441L75.3402 65.7658L74.6289 67.1861L73.9176 68.6064L72.9497 69.8876L71.9817 71.1688L70.2241 72.4515L68.4666 73.7342L66.7297 74.4546L64.9928 75.1751L64.0352 75.3168L63.0777 75.4585L64.5855 75.0087ZM15.6125 73.8869L14.3484 73.5468L12.885 72.8212L11.4215 72.0956L10.2339 71.2244L9.04633 70.3531L8.09672 69.1526L7.14711 67.952L6.65158 66.9813L6.15605 66.0106L5.75025 64.8175L5.34444 63.6244L4.76683 63.463L4.18922 63.3015L4.69852 63.2777L5.20782 63.2538L5.44533 63.5529L5.68282 63.8519L5.98007 64.8088L6.27731 65.7658L7.08255 67.2294L7.8878 68.6931L9.2532 70.036L10.6186 71.3789L12.4827 72.3481L14.3468 73.3173L16.0905 73.7674L17.8341 74.2175L17.3553 74.2222L16.8766 74.227L15.6125 73.8869ZM19.3901 70.4179L21.6643 70.2394L22.3892 70.0081L23.1142 69.7769L24.1739 69.2366L25.2337 68.6963L26.6176 67.377L28.0016 66.0578L28.58 65.0714L29.1584 64.0851L29.5718 62.6642L29.9851 61.2434L29.8374 59.497L29.6896 57.7506L29.3163 56.8539L28.943 55.9573L29.309 56.3203L29.6749 56.6834L29.9186 57.9678L30.1624 59.2522V60.3905V61.5288L29.6896 63.0492L29.2168 64.5696L28.3829 65.8015L27.5489 67.0333L26.5217 67.8633L25.4944 68.6934L24.5027 69.3096L23.511 69.9259L22.0743 70.298L20.6376 70.67L18.8768 70.6332L17.116 70.5964L19.3901 70.4179ZM57.6431 70.2081L56.2781 69.7719L55.1296 69.1094L53.9811 68.447L52.8047 67.226L51.6284 66.005L50.9572 64.5696L50.2859 63.1342L49.9887 61.3914L49.6915 59.6486L50.1606 57.8198L50.6297 55.991L50.9527 55.8865L51.2757 55.782L50.833 56.4568L50.3903 57.1316V59.8937V62.6558L50.9492 64.0396L51.5082 65.4235L52.8404 66.8615L54.1727 68.2996L55.2225 68.9145L56.2724 69.5294L57.7214 69.9801L59.1705 70.4308H61.0718H62.9731L64.4596 69.9303L65.9461 69.4299L67.0572 68.6147L68.1684 67.7996L69.061 66.8122L69.9537 65.8248L70.6676 64.3002L71.3815 62.7756L71.6438 61.0819L71.9061 59.3881L71.6185 57.7117L71.3308 56.0354L70.6753 54.6821L70.0198 53.3288L68.5803 51.8919L67.1409 50.455L65.8633 49.7691L64.5857 49.0833L63.3743 48.7639L62.1629 48.4445L60.1068 48.523L58.0506 48.6014L57.4522 48.7482L56.8537 48.8949L57.9309 48.5223L59.0082 48.1496L61.2064 48.2514L63.4047 48.3532L65.2408 49.2246L67.0769 50.096L68.6855 51.7109L70.2942 53.3258L70.9635 54.7022L71.6329 56.0787L71.8919 57.8754L72.1509 59.6721L71.8606 61.364L71.5702 63.056L70.9574 64.3505L70.3447 65.645L69.1285 66.9749L67.9123 68.3048L66.9114 68.9929L65.9106 69.6811L64.4418 70.1755L62.9731 70.67L60.9906 70.6571L59.0082 70.6443L57.6431 70.2081ZM15.7994 70.207L15.2009 70.0244L14.1285 69.477L13.0561 68.9295L12.1289 68.1849L11.2017 67.4403L10.1486 66.0404L9.09554 64.6404L8.58695 62.967L8.07836 61.2937L8.1889 58.8647L8.29944 56.4357L8.82773 55.4788L9.35601 54.5219L9.24059 54.8807L9.12516 55.2396L8.72193 56.5398L8.3187 57.8401L8.43025 60.1551L8.54179 62.4701L9.25878 63.9983L9.97577 65.5265L11.2261 66.8913L12.4764 68.2562L13.3415 68.7905L14.2066 69.3248L15.6613 69.8653L17.116 70.4058L16.7569 70.3977L16.3978 70.3896L15.7994 70.207ZM17.0742 68.9858L16.0749 68.7872L14.7821 68.176L13.4894 67.5649L12.3818 66.4737L11.2743 65.3825L10.6443 64.0956L10.0142 62.8086L9.74938 61.0986L9.48453 59.3887L9.74551 57.8661L10.0065 56.3435L10.5896 55.0738L11.1727 53.8042L12.265 52.6834L13.3573 51.5627L14.7579 50.8624L16.1584 50.162L17.4267 49.8632L18.6951 49.5644L20.2738 49.7333L21.8526 49.9023L22.7483 50.2181L23.6439 50.5339L23.9592 50.2552L24.2744 49.9765L23.9788 50.3694L23.6832 50.7622L22.6326 50.4462L21.582 50.1302L20.1221 49.981L18.6623 49.8317L17.2345 50.1972L15.8067 50.5628L14.6563 51.1453L13.506 51.7279L12.552 52.766L11.5981 53.8042L11.0717 54.6597L10.5453 55.5152L10.156 57.1716L9.76661 58.828L9.90996 60.4205L10.0533 62.0129L10.5832 63.3968L11.1131 64.7806L12.4389 66.1228L13.7646 67.4651L14.9615 68.0508L16.1584 68.6365H19.1507H22.143L23.3399 68.0384L24.5369 67.4403L25.7456 66.2442L26.9544 65.048L27.5043 63.908L28.0542 62.768L28.3844 60.9176L28.7146 59.0673L28.5851 60.5951L28.4555 62.1229L27.9844 63.3814L27.5132 64.6399L26.5377 65.7474L25.5623 66.8549L24.5136 67.576L23.4649 68.297L22.5365 68.6244L21.6081 68.9517L19.8408 69.0681L18.0735 69.1844L17.0742 68.9858ZM58.9778 68.9986L57.7504 68.8155L56.2842 68.0345L54.8179 67.2535L53.8394 66.1927L52.861 65.1318L52.2369 63.7742L51.6128 62.4165L51.5123 60.3516L51.4117 58.2866L51.7006 57.4117L51.9896 56.5368L51.6818 56.1274L51.3741 55.718L51.8066 56.1121L52.2391 56.5061L51.9451 57.3964L51.6511 58.2866L51.7508 60.3709L51.8505 62.4552L52.5204 63.8234L53.1902 65.1916L54.3038 66.2924L55.4174 67.3931L56.8537 68.0744L58.29 68.7557L60.93 68.7559L63.57 68.7561L65.2597 67.9468L66.9495 67.1375L67.7811 66.0928L68.6126 65.048L68.9803 64.4499L69.3479 63.8519L69.7436 62.6539L70.1394 61.456L70.159 59.4243L70.1786 57.3926L69.9141 56.6749L69.6496 55.9572L69.1166 54.8866L68.5835 53.8159L67.6765 52.9319L66.7695 52.0479L65.6418 51.3323L64.514 50.6168L63.256 50.2494L61.998 49.8819L60.144 49.9488L58.29 50.0157L57.2238 50.4035L56.1576 50.7914L55.8474 50.5341L55.5371 50.2767V49.9643V49.6518L55.9133 49.2759L56.2894 48.8999H56.5382H56.7871L56.2418 49.3411L55.6966 49.7823L55.8583 50.2033L56.0199 50.6242L56.4368 50.4461L56.8537 50.268L58.0429 49.9428L59.2322 49.6176H60.5911H61.95L63.5084 50.0986L65.0667 50.5797L66.466 51.6103L67.8654 52.641L68.4891 53.4618L69.1129 54.2826L69.5985 55.2395L70.0841 56.1965L70.3509 57.5122L70.6178 58.828L70.4079 60.6564L70.1981 62.4848L69.6038 63.7664L69.0096 65.048L67.9949 66.1881L66.9802 67.3283L65.9468 67.9335L64.9134 68.5387L64.1152 68.7689L63.3171 68.999L61.7611 69.0903L60.2051 69.1817L58.9778 68.9986ZM4.99171 66.6628L4.72882 66.005L4.39875 64.9488L4.06867 63.8926L4.14834 63.813L4.22801 63.7334L4.8388 65.527L5.4496 67.3207H5.3521H5.2546L4.99171 66.6628ZM17.6546 66.2054L17.9538 66.0847L18.253 66.2054L18.5523 66.326H17.9538H17.3553L17.6546 66.2054ZM19.9333 66.198L20.3567 66.0877L20.6514 66.2069L20.9461 66.326L20.2279 66.3172L19.5098 66.3083L19.9333 66.198ZM59.068 66.2054L59.3672 66.0847L59.6665 66.2054L59.9657 66.326H59.3672H58.7688L59.068 66.2054ZM61.8255 66.198L62.2489 66.0877L62.5436 66.2069L62.8383 66.326L62.1201 66.3172L61.402 66.3083L61.8255 66.198ZM16.1443 65.7525L15.6797 65.3805L16.2781 65.6653L16.8766 65.9502L16.9763 66.0374L17.0761 66.1246H16.8425H16.609L16.1443 65.7525ZM22.1623 65.5275L23.3399 64.9304L23.4596 64.9369L23.5793 64.9433L22.6218 65.5327L21.6643 66.1221L21.3245 66.1234L20.9846 66.1246L22.1623 65.5275ZM58.4097 66.005V65.8854H58.5294H58.6491V66.005V66.1246H58.5294H58.4097V66.005ZM63.9155 65.5066L64.9928 64.8944L65.7072 64.2535L66.4216 63.6127L65.9465 64.1871L65.4715 64.7616L64.4073 65.4431L63.343 66.1246L63.0907 66.1217L62.8383 66.1188L63.9155 65.5066ZM57.1795 65.3927L56.6143 64.9L57.3325 65.3203L58.0506 65.7405L58.1504 65.8129L58.2501 65.8854H57.9973H57.7446L57.1795 65.3927ZM14.5198 64.5584L13.6456 63.71L13.2828 62.9436L12.9199 62.1773L13.2226 62.6427L13.5252 63.1082L14.5753 64.2575L15.6255 65.4069H15.5097H15.394L14.5198 64.5584ZM18.9911 65.0082L19.1507 64.8487L19.3103 65.0082L19.4699 65.1677H19.1507H18.8315L18.9911 65.0082ZM19.6295 65.048V64.9284H19.7492H19.8689V65.048V65.1677H19.7492H19.6295V65.048ZM60.3447 65.0813L60.4445 64.995L61.5217 64.8527L62.5989 64.7103L62.1201 64.9222L61.6414 65.134L60.9432 65.1508L60.245 65.1676L60.3447 65.0813ZM17.9089 64.765L18.2231 64.6394L18.3677 64.7839L18.5124 64.9284L18.0535 64.9095L17.5947 64.8906L17.9089 64.765ZM20.188 64.7689L20.3476 64.6094L20.5072 64.7689L20.6668 64.9284H20.3476H20.0285L20.188 64.7689ZM55.8734 64.3902L55.4174 63.8519L55.956 64.3076L56.4946 64.7633V64.8459V64.9284H56.412H56.3294L55.8734 64.3902ZM59.447 64.7689L59.6066 64.6094L59.7662 64.7689L59.9258 64.9284H59.6066H59.2874L59.447 64.7689ZM16.6372 64.4107L16.1584 64.1467L15.4787 63.5208L14.7991 62.895L14.4437 62.2148L14.0883 61.5347L14.1935 61.4297L14.2986 61.3246L14.5876 62.0219L14.8766 62.7191L15.5175 63.3169L16.1584 63.9147L16.8766 64.2923L17.5947 64.67L17.3553 64.6723L17.116 64.6746L16.6372 64.4107ZM21.4712 64.3327L22.2356 63.9812L23.2371 62.9596L24.2386 61.938L23.8313 62.5811L23.424 63.2242L22.6638 63.8026L21.9036 64.3811L21.3052 64.5327L20.7067 64.6842L21.4712 64.3327ZM24.2825 63.8928L24.9528 63.0146H25.0603H25.1679L24.6617 63.725L24.1555 64.4355L23.8838 64.6033L23.6121 64.7711L24.2825 63.8928ZM57.7846 64.2335L57.0397 63.7796L56.567 63.098L56.0944 62.4165L55.9213 62.1175L55.7482 61.8184H55.8502H55.9522L56.5819 62.7693L57.2116 63.7202L58.1099 64.1941L59.0082 64.668L58.7688 64.6777L58.5294 64.6874L57.7846 64.2335ZM63.7858 63.9285L64.935 63.1677L65.5002 61.9548L66.0653 60.7419L66.0676 61.0504L66.07 61.359L65.5847 62.3096L65.0994 63.2602L64.1125 63.9747L63.1255 64.6892H62.881H62.6365L63.7858 63.9285ZM55.1552 63.4561L54.9843 63.1799L55.2607 63.3506L55.5371 63.5213V63.6268V63.7323H55.4315H55.326L55.1552 63.4561ZM66.4291 63.2538L66.577 63.0146H66.6967H66.8164L66.6684 63.2538L66.5205 63.493H66.4008H66.2811L66.4291 63.2538ZM54.6894 62.7594L54.5316 62.5043L54.6457 62.3903L54.7598 62.2762L54.9015 62.6454L55.0433 63.0146H54.9452H54.8472L54.6894 62.7594ZM25.1353 62.5361V62.2171L25.2949 62.3766L25.4545 62.5361L25.2949 62.6956L25.1353 62.8551V62.5361ZM66.7881 62.6557V62.5361H66.9078H67.0275V62.6557V62.7753H66.9078H66.7881V62.6557ZM59.706 62.1941L58.9675 61.8747L58.4492 61.2162L57.9309 60.5577V59.6583V58.7589L56.6338 57.5973L55.3366 56.4357L51.9849 53.2566L48.6332 50.0774L48.4795 50.5613L48.3258 51.0452L47.383 51.9968L46.4403 52.9484L45.2057 53.3148L43.9711 53.6812L39.826 53.6969L35.6809 53.7126L34.5375 53.2083L33.3941 52.704L32.4964 51.83L31.5987 50.9559V50.6598V50.3636L31.3962 50.2385L31.1937 50.1134L29.6408 51.6L28.0879 53.0865L25.0556 55.9163L22.0233 58.7461V59.6762V60.6063L21.1775 61.4516L20.3317 62.2969L19.8011 62.2643L19.2704 62.2317L19.807 62.1283L20.3436 62.0249L21.0638 61.3052L21.7839 60.5855V59.5447V58.5039L22.4423 57.9904L23.1006 57.4768L26.4519 54.3045L29.8033 51.1322L30.6746 50.3733L31.546 49.6143L31.6919 50.1956L31.8379 50.7769L32.4666 51.5235L33.0952 52.2702L34.0825 52.798L35.0698 53.3257H39.9771H44.8845L45.842 52.8107L46.7996 52.2958L47.3253 51.7325L47.851 51.1692L48.1767 50.3951L48.5024 49.621L50.3097 51.3537L52.1169 53.0865L55.1436 55.9148L58.1703 58.7431V59.6562V60.5693L58.5892 61.067L59.0082 61.5648L59.6558 61.891L60.3035 62.2171L61.0042 62.1144L61.7048 62.0116L62.4511 61.3304L63.1974 60.6492V59.6549V58.6606L62.3835 57.8472L61.5696 57.0338L60.7676 57.0423L59.9657 57.0507L59.3672 57.3843L58.7688 57.7178L56.2552 55.2747L53.7417 52.8316L51.1424 50.4471L48.5431 48.0626L48.6777 40.1331L48.8123 32.2036L50.7982 30.3373L52.7842 28.4709L54.8189 26.52L56.8537 24.5691L57.9309 23.6045L59.0082 22.64L60.3237 22.7679L61.6392 22.8959L61.1617 23.0633L60.6842 23.2307L59.9005 23.0145L59.1169 22.7983L55.8507 25.8612L52.5845 28.9242L50.8268 30.5988L49.0691 32.2734L48.9216 40.0576L48.7741 47.8419L52.5517 51.4211L56.3294 55.0003L57.5302 56.1466L58.731 57.2928L59.109 57.1246L59.4869 56.9564L60.3919 56.8496L61.2969 56.7429L62.1143 57.3026L62.9317 57.8623L63.1842 58.4162L63.4368 58.9701V59.7778V60.5855L62.8278 61.3088L62.2188 62.0321L61.6907 62.1834L61.1626 62.3348L60.8035 62.4241L60.4445 62.5134L59.706 62.1941ZM17.4951 61.679L16.7603 61.0611L16.5585 60.3034L16.3567 59.5457L16.5368 58.8993L16.7169 58.2528L17.1558 57.7954L17.5947 57.3379L18.1176 57.0662L18.6405 56.7946H19.2434H19.8463L20.4732 57.08L21.1001 57.3654L21.2625 57.1398L21.4249 56.9142L22.8612 55.6163L24.2975 54.3184L26.219 52.5063L28.1406 50.6942L29.5704 49.3784L31.0002 48.0626L31.1325 44.5938L31.2648 41.1249L31.3148 44.5938L31.3648 48.0626L29.9437 49.3784L28.5225 50.6942L24.8801 54.0434L21.2376 57.3926L20.7328 57.3204L20.2279 57.2481L19.3314 57.1159L18.4348 56.9838L17.5958 57.8222L16.7569 58.6606V59.4179V60.1753L17.0341 60.6929L17.3113 61.2105L17.6375 61.5364L17.9636 61.8624L18.617 62.0591L19.2704 62.2558L18.7502 62.2763L18.2299 62.2969L17.4951 61.679ZM67.0275 62.0576V61.7387L67.1871 61.8982L67.3467 62.0576L67.1871 62.2171L67.0275 62.3766V62.0576ZM12.6013 61.5289L12.4545 60.9811L12.4753 60.5026L12.4961 60.0242L12.7152 60.9574L12.9343 61.8906L12.8412 61.9836L12.7482 62.0766L12.6013 61.5289ZM24.7534 61.7815L24.5826 61.5053L24.859 61.676L25.1353 61.8467V61.9521V62.0576H25.0298H24.9242L24.7534 61.7815ZM55.0583 61.938V61.8184H55.178H55.2977V61.938V62.0576H55.178H55.0583V61.938ZM67.4424 60.2634L67.5724 58.828L67.659 58.7284L67.7457 58.6287L67.7288 59.6853L67.712 60.7419L67.5122 61.2203L67.3124 61.6988L67.4424 60.2634ZM13.7983 60.5719L13.6514 60.0242L13.6744 59.4261L13.6973 58.828L13.9057 59.8895L14.114 60.9509L14.0295 61.0353L13.9451 61.1197L13.7983 60.5719ZM18.2508 60.3863L17.9538 59.9111V59.4349V58.9587L18.5621 58.5604L19.1703 58.1621L19.7524 58.4271L20.3344 58.6921L20.4891 59.308L20.6438 59.9238L20.2192 60.3927L19.7947 60.8615H19.1712H18.5477L18.2508 60.3863ZM20.1131 60.1348L20.3742 59.6473L20.2321 59.1999L20.09 58.7526L19.7063 58.6055L19.3227 58.4583L18.8782 58.5993L18.4337 58.7403L18.2867 59.3255L18.1397 59.9108L18.4352 60.2665L18.7306 60.6223H19.2913H19.852L20.1131 60.1348ZM59.6223 60.4123L59.3672 59.936V59.4789V59.0218L59.8532 58.5822L60.3393 58.1427L60.9655 58.3657L61.5918 58.5888L61.8468 58.9948L62.1018 59.4009L61.8672 60.0714L61.6327 60.7419L60.755 60.8152L59.8773 60.8885L59.6223 60.4123ZM61.4738 60.3352L61.7611 60.0481V59.5063V58.9645L61.3422 58.7544L60.9232 58.5443L60.3248 58.696L59.7263 58.8476L59.6481 59.3893L59.5699 59.9309L59.8569 60.2766L60.144 60.6223H60.6653H61.1865L61.4738 60.3352ZM66.0101 59.2294L65.8837 57.8365L65.4017 56.8969L64.9197 55.9573L64.3577 55.4338L63.7958 54.9104L62.7186 54.4224L61.6414 53.9343L61.9525 53.929L62.2636 53.9238L63.0297 54.3099L63.7958 54.6961L64.4761 55.3267L65.1563 55.9572L65.6397 56.8969L66.1231 57.8365L66.2495 59.2294L66.3759 60.6223H66.2562H66.1365L66.0101 59.2294ZM12.2275 59.2866L12.2464 58.828L12.3721 59.142L12.4978 59.456L12.3532 59.6005L12.2086 59.7451L12.2275 59.2866ZM28.1452 57.7135L27.9813 56.4794L28.4005 56.0987L28.8195 55.718L28.5223 56.1148L28.225 56.5116L28.3867 57.7296L28.5484 58.9476H28.4287H28.309L28.1452 57.7135ZM12.4858 58.2299V57.6319L12.6065 57.9309L12.7272 58.2299L12.6065 58.529L12.4858 58.828V58.2299ZM13.897 58.3496L13.8888 57.8711L14.6033 56.626L15.3178 55.381L16.3576 54.772L17.3974 54.163H17.7226H18.0478L16.813 54.778L15.5781 55.3929L15.0512 56.245L14.5242 57.0971L14.2148 57.9626L13.9053 58.828L13.897 58.3496ZM67.3047 57.9907V57.3926L67.4254 57.6917L67.5462 57.9907L67.4254 58.2898L67.3047 58.5888V57.9907ZM12.6947 57.3926V57.1534L12.9267 56.7946L13.1588 56.4357V56.675V56.9142L12.9267 57.273L12.6947 57.6319V57.3926ZM66.6616 56.3009L66.2207 55.3239L65.0083 54.2143L63.7958 53.1047L64.4913 53.5441L65.1868 53.9835L65.7543 54.6115L66.3217 55.2396L66.811 56.1599L67.3003 57.0802L67.2014 57.179L67.1024 57.2779L66.6616 56.3009ZM13.4055 55.8376L13.6617 55.3592H13.7814H13.9011L13.6449 55.8376L13.3887 56.3161H13.269H13.1493L13.4055 55.8376ZM14.8089 54.2839L15.7349 53.4478L16.5973 53.0877L17.4597 52.7276L17.7666 52.7388L18.0735 52.75L16.896 53.2095L15.7185 53.669L14.9695 54.3945L14.2206 55.12H14.0517H13.8829L14.8089 54.2839ZM9.35005 54.3258L9.33598 54.1296L10.0282 53.1241L10.7205 52.1186L11.802 51.1223L12.8835 50.126L14.098 49.511L15.3125 48.896L16.6835 48.5391L18.0544 48.1823H19.2704H20.4864L21.9132 48.5533L23.3399 48.9243L23.8993 49.2901L24.4587 49.6559L24.2855 49.8162L24.1122 49.9765L24.0101 49.6916L23.908 49.4068L22.6664 48.9752L21.4249 48.5436H19.2704H17.116L15.8561 48.9812L14.5963 49.4189L13.1417 50.3896L11.6871 51.3604L10.8108 52.4905L9.93444 53.6206L9.64929 54.0713L9.36413 54.5219L9.35005 54.3258ZM18.4326 54.0713V53.9796L19.0238 53.8666L19.615 53.7537L19.4884 53.9584L19.3618 54.163H18.8972H18.4326V54.0713ZM60.998 53.7604L61.3122 53.6347L61.4569 53.7793L61.6015 53.9238L61.1427 53.9049L60.6838 53.886L60.998 53.7604ZM19.5 53.1902L19.3422 52.935L19.4563 52.821L19.5703 52.707L19.7121 53.0762L19.8538 53.4453H19.7558H19.6577L19.5 53.1902ZM59.846 53.0865V52.9669H59.9657H60.0854V53.0865V53.2061H59.9657H59.846V53.0865ZM63.4368 53.0865V52.9669H63.5564H63.6761V53.0865V53.2061H63.5564H63.4368V53.0865ZM62.7984 52.8074L62.958 52.6479L63.1176 52.8074L63.2772 52.9669H62.958H62.6388L62.7984 52.8074ZM18.6271 52.5642L18.9413 52.4386L19.0859 52.5831L19.2305 52.7276L18.7717 52.7088L18.3129 52.6899L18.6271 52.5642ZM60.0854 52.608V52.4884H60.2051H60.3248V52.608V52.7276H60.2051H60.0854V52.608ZM61.7012 52.5692L62.0005 52.4485L62.2997 52.5692L62.5989 52.6899H62.0005H61.402L61.7012 52.5692ZM60.7587 52.325L61.0728 52.1993L61.2175 52.3439L61.3621 52.4884L60.9033 52.4695L60.4445 52.4506L60.7587 52.325ZM35.342 51.8988L34.4173 51.5693L33.7379 50.9188L33.0584 50.2683L32.8198 49.5841L32.5811 48.9H32.8081H33.035V49.3461V49.7924L33.5349 50.4275L34.0348 51.0626L34.7917 51.4721L35.5485 51.8817L39.4984 52.0215L43.4482 52.1613L39.8574 52.1948L36.2667 52.2282L35.342 51.8988ZM44.4244 51.7392L45.4006 51.5196L46.2198 50.675L47.039 49.8304V41.0415V32.2527L46.6014 31.5851L46.1638 30.9175L45.1651 30.4644L44.1663 30.0112L40.1924 30.006L36.2184 30.0007L35.4047 30.2725L34.591 30.5443L33.9289 31.1582L33.2667 31.7721L33.0443 32.6208L32.8218 33.4696L32.8002 40.9939L32.7785 48.5183L32.6674 48.6294L32.5562 48.7405L32.5575 41.105L32.5587 33.4696L32.7944 32.6216L33.0302 31.7737L33.8105 31.0389L34.5908 30.3041L35.4046 30.0328L36.2183 29.7615L40.1922 29.7667L44.1662 29.772L45.1237 30.2136L46.0813 30.6553L46.6797 31.3042L47.2782 31.9531V40.8452V49.7373L46.7207 50.5184L46.1632 51.2995L45.4758 51.6547L44.7884 52.01L44.1182 51.9843L43.448 51.9587L44.4244 51.7392ZM30.9025 36.6894L30.9603 32.3232L29.7833 31.2344L28.6064 30.1455L25.3747 27.1205L22.143 24.0954L21.3052 23.3186L20.4673 22.5417L20.993 22.8756L21.5187 23.2096L24.5838 26.0661L27.6488 28.9226L29.5041 30.6993L31.3593 32.476V36.6069V40.7379L31.102 40.8968L30.8448 41.0557L30.9025 36.6894ZM15.7738 30.8681L14.1923 30.3101L13.1406 29.5867L12.0889 28.8633L10.9363 27.6314L9.78361 26.3995L9.02118 24.7911L8.25875 23.1826V20.3119V17.4411L9.0717 15.7787L9.88467 14.1163L10.9868 12.9314L12.0889 11.7465L13.2858 10.981L14.4827 10.2155L15.7994 9.76969L17.116 9.32387L19.1507 9.32372L21.1855 9.32357L22.7625 9.86026L24.3395 10.397L25.7752 11.441L27.2109 12.485L28.0467 13.6473L28.8826 14.8096L29.4326 16.1194L29.9827 17.4293L30.1066 19.4142L30.2305 21.3991L29.8131 22.9403L29.3956 24.4816L28.9145 24.6342L28.4333 24.7868L28.1158 24.4632L27.7983 24.1396L28.1668 22.5846L28.5353 21.0295L28.4094 19.4649L28.2836 17.9002L27.8654 16.8333L27.4471 15.7665L26.7502 14.7377L26.0533 13.709L24.936 12.8834L23.8187 12.0577L22.1859 11.5512L20.5531 11.0446L18.4536 11.1449L16.3542 11.2452L14.9799 11.9401L13.6056 12.635L12.3289 14.013L11.0523 15.3911L10.5503 16.7319L10.0483 18.0727L9.84209 19.6708L9.63593 21.2688L9.60564 20.3834L9.57536 19.4981L9.84452 18.2304L10.1137 16.9626L10.677 15.8448L11.2403 14.727L12.4717 13.5157L13.703 12.3044L15.0504 11.6431L16.3978 10.9818H19.1507H21.9036L23.2203 11.6032L24.5369 12.2245L25.7863 13.3532L27.0358 14.4819L27.7616 15.9615L28.4875 17.4411L28.6313 19.2353L28.775 21.0295L28.4075 22.5846L28.0401 24.1396L28.2473 24.3507L28.4545 24.5619L28.8191 24.4221L29.1836 24.2823L29.5341 23.1344L29.8847 21.9865L29.8349 19.683L29.7851 17.3795L28.8959 15.5815L28.0067 13.7834L26.6011 12.4829L25.1956 11.1825L24.0474 10.6431L22.8991 10.1037L21.1276 9.71951L19.356 9.33531L17.6375 9.62397L15.919 9.91262L14.4827 10.6123L13.0464 11.3119L12.0258 12.185L11.0052 13.0581L10.2805 14.1108L9.55577 15.1634L8.9671 16.7264L8.37844 18.2893V20.0278V21.7663L8.74996 23.1922L9.12149 24.618L9.71705 25.6338L10.3126 26.6496L11.6025 27.97L12.8924 29.2903L14.7564 30.175L16.6205 31.0596L18.7833 31.1533L20.9461 31.2469L22.3025 30.8519L23.6589 30.4569L23.939 30.1197L24.219 29.7824L24.0436 29.4729L23.8682 29.1634L24.1648 29.4368L24.4615 29.7101L24.2099 30.1799L23.9583 30.6498L22.5562 31.0429L21.1541 31.4361L19.2547 31.4311L17.3553 31.426L15.7738 30.8681ZM61.402 31.191L63.3171 31.0146L64.6589 30.5034L66.0007 29.9922L67.1383 29.2392L68.2759 28.4862L69.2249 27.2864L70.1739 26.0865L70.6377 25.178L71.1016 24.2694L71.4815 22.6495L71.8614 21.0295L71.7146 19.5601L71.5678 18.0907L71.1073 16.7532L70.6469 15.4157L69.9207 14.361L69.1946 13.3063L68.136 12.3751L67.0774 11.4439L65.8553 10.7791L64.6331 10.1144L63.1373 9.76923L61.6414 9.42409L62.8383 9.544L64.0352 9.66393L65.7109 10.4893L67.3866 11.3147L68.7774 12.6991L70.1682 14.0834L70.8663 15.5454L71.5645 17.0073L71.8606 18.7332L72.1568 20.4591L71.7289 22.5364L71.301 24.6136L70.4685 25.9833L69.6359 27.353L68.2956 28.5468L66.9554 29.7406L65.7347 30.3358L64.514 30.9311L63.4368 31.1777L62.3595 31.4244L60.9232 31.3959L59.4869 31.3673L61.402 31.191ZM26.7885 26.4303L21.6906 21.6605L21.7519 20.5067L21.8132 19.3528L21.1403 18.7229L20.4673 18.0929L19.925 17.9291L19.3826 17.7653L18.5525 18.0391L17.7225 18.3128L17.2397 18.9904L16.7569 19.668V20.2777V20.8874L17.0429 21.5147L17.3289 22.142L17.9885 22.4829L18.6482 22.8238L19.5578 22.8311L20.4673 22.8383L20.0803 23.0643L19.6933 23.2903L18.647 22.9876L17.6008 22.6849L17.0591 21.8816L16.5175 21.0784V20.2729V19.4675L17.337 18.5739L18.1564 17.6803H19.2387H20.321L21.1722 18.5047L22.0233 19.3292L22.0413 20.5382L22.0593 21.7472L24.1359 23.6432L26.2125 25.5393L28.2473 27.4506L30.2821 29.362L31.0499 30.0773L31.8177 30.7925L32.7801 29.9236L33.7425 29.0546L34.6455 28.6551L35.5485 28.2556L39.9771 28.231L44.4057 28.2065L45.6026 28.757L46.7996 29.3075L47.5177 29.9927L48.2359 30.6779L49.9421 29.0833L51.6484 27.4888L54.7781 24.5139L57.9077 21.5391L58.005 20.5666L58.1022 19.5942L58.0764 20.6707L58.0506 21.7472L53.6194 25.9338L49.1882 30.1203L48.6852 30.5462L48.1822 30.972L47.3712 30.2111L46.5602 29.4502L45.6026 29.013L44.6451 28.5758L39.9771 28.5728L35.3091 28.5698L34.077 29.276L32.8449 29.9822L32.3656 30.5911L31.8864 31.2L26.7885 26.4303ZM57.9309 31.0421L57.5719 30.9252L56.6742 30.5462L55.7765 30.1673V29.7544V29.3416L56.1269 29.051L56.4773 28.7603L57.7427 29.2011L59.0082 29.6419L61.1626 29.6082L63.3171 29.5746L64.0505 29.2494L64.7839 28.9242L66.0852 28.1232L67.3866 27.3223L68.2877 26.2094L69.1888 25.0965L69.6863 23.7807L70.1839 22.4649L70.093 20.0726L70.0021 17.6803L69.3699 16.3645L68.7377 15.0488L67.93 14.2115L67.1224 13.3742L66.2227 12.6931L65.323 12.012L63.9765 11.5391L62.6299 11.0661L60.8951 11.0752L59.1603 11.0842L58.4858 11.2467L57.8112 11.4091L56.6656 11.9814L55.5199 12.5536L54.537 13.441L53.5541 14.3284L53.0046 15.1984L52.455 16.0684L52.0502 17.4601L51.6454 18.8517L51.815 20.8975L51.9847 22.9434L52.0254 23.6611L52.066 24.3788L51.5412 24.4534L51.0164 24.528L50.6498 23.8194L50.2831 23.1108L50.0042 21.4232L49.7253 19.7355L50.0194 18.2294L50.3134 16.7234L51.1626 15.1026L52.0119 13.4819L53.3291 12.2788L54.6463 11.0757L55.8053 10.4888L56.9642 9.90188L58.465 9.54828L59.9657 9.19468L60.8035 9.22372L61.6414 9.25277L61.0429 9.34234L60.4445 9.43192L59.0082 9.70062L57.5719 9.96934L56.0721 10.6689L54.5724 11.3685L53.2541 12.6548L51.9357 13.9411L51.203 15.5059L50.4703 17.0707L50.294 18.3688L50.1178 19.6669L50.2933 21.3085L50.4688 22.95L50.7672 23.6046L51.0656 24.2592H51.5339H52.0021L51.8418 23.6013L51.6815 22.9434L51.5471 21.0199L51.4128 19.0963L51.6977 17.725L51.9825 16.3537L52.9818 14.8776L53.9811 13.4015L55.2977 12.5051L56.6143 11.6087L57.8112 11.2493L59.0082 10.8899L60.2051 10.7793L61.402 10.6686L62.5989 10.9162L63.7958 11.1638L65.057 11.7195L66.3181 12.2751L67.6374 13.5936L68.9567 14.912L69.5433 16.1765L70.1298 17.4411L70.3981 18.731L70.6664 20.021L70.4033 21.7884L70.1403 23.5559L69.5216 24.7761L68.9028 25.9963L67.7192 27.1792L66.5355 28.3621L65.0337 29.0426L63.5319 29.7231L61.8685 29.8838L60.2051 30.0444L58.6491 29.6486L57.0931 29.2526L56.6218 29.208L56.1505 29.1634L56.0687 29.5659L55.987 29.9684L56.5387 30.2635L57.0904 30.5585L58.169 30.8563L59.2475 31.1541L58.7688 31.1566L58.29 31.1591L57.9309 31.0421ZM16.7569 29.7374L15.919 29.4848L15.7222 29.2949L15.5254 29.1049L16.7918 29.4332L18.0581 29.7615H19.392H20.7258L22.1044 29.4026L23.483 29.0438L23.6509 29.0531L23.8187 29.0625L22.9809 29.4322L22.143 29.8019L19.8689 29.8959L17.5947 29.99L16.7569 29.7374ZM13.7182 28.2113L12.4813 27.3789L11.5031 26.0138L10.525 24.6488L10.1699 23.4536L9.81474 22.2585L9.83049 21.7636L9.84626 21.2688L10.1846 22.5246L10.523 23.7804L11.0171 24.7483L11.5112 25.7161L12.3985 26.6985L13.2858 27.6809L14.363 28.3578L15.4403 29.0347L15.1977 29.0392L14.9551 29.0438L13.7182 28.2113ZM17.894 27.2107L18.1932 27.0901L18.4924 27.2107L18.7916 27.3314H18.1932H17.5947L17.894 27.2107ZM19.2305 27.2097L19.3901 27.0502L19.5497 27.2097L19.7093 27.3691H19.3901H19.0709L19.2305 27.2097ZM17.0761 26.9704L17.2357 26.8109L17.3952 26.9704L17.5548 27.1299H17.2357H16.9165L17.0761 26.9704ZM62.18 26.9715L62.4792 26.8508L62.7785 26.9715L63.0777 27.0922H62.4792H61.8808L62.18 26.9715ZM15.766 26.3981L15.2009 25.9054L15.919 26.3256L16.6372 26.7459L16.7369 26.8183L16.8367 26.8907H16.5839H16.3311L15.766 26.3981ZM63.2772 26.7312L63.4368 26.5717L63.5963 26.7312L63.7559 26.8907H63.4368H63.1176L63.2772 26.7312ZM60.8108 26.5013L60.8036 26.2316L61.1546 25.9405L61.5056 25.6493L61.8129 25.7727L62.1202 25.896L61.7131 25.9149L61.3061 25.9338L61.0621 26.3524L60.8181 26.7711L60.8108 26.5013ZM63.9155 26.5319V26.4122H64.0352H64.1549V26.5319V26.6515H64.0352H63.9155V26.5319ZM64.3943 26.3328V26.2132L65.3518 25.4553L66.3094 24.6974V24.817V24.9367L65.3518 25.6945L64.3943 26.4525V26.3328ZM17.8973 25.9348L17.2424 25.7377L16.3783 25.204L15.5142 24.6703L14.8189 23.7112L14.1237 22.752L14.1238 22.3692L14.124 21.9865L14.6202 22.9882L15.1164 23.99L15.9859 24.6528L16.8554 25.3156L18.0629 25.7275L19.2704 26.1395L18.9113 26.1357L18.5522 26.1319L17.8973 25.9348ZM14.117 25.0523L13.3425 24.1708L12.9005 23.1983L12.4585 22.2257L12.4795 21.508L12.5004 20.7903L12.698 21.7888L12.8955 22.7872L13.2747 23.52L13.6538 24.2527L14.3923 25.0932L15.1308 25.9338H15.0111H14.8914L14.117 25.0523ZM63.3541 25.0928L64.5624 24.4911L65.1965 23.6005L65.8306 22.7099V22.8961V23.0824L65.292 23.8138L64.7534 24.5452L63.7748 25.1199L62.7962 25.6945H62.471H62.1458L63.3541 25.0928ZM66.4291 24.2592L66.577 24.0199H66.6967H66.8164L66.6684 24.2592L66.5205 24.4984H66.4008H66.2811L66.4291 24.2592ZM67.0677 23.0508L67.3223 22.3209L67.421 22.4195L67.5197 22.5182L67.2795 23.1495L67.0394 23.7807H66.9262H66.813L67.0677 23.0508ZM62.1706 22.3998L62.6999 21.9865L63.0638 21.1078L63.4278 20.2291L63.0671 19.3666L62.7065 18.5041L61.9014 18.1204L61.0962 17.7367L60.2421 17.8968L59.388 18.057L58.7818 18.8256L58.1756 19.5942L58.173 19.3399L58.1703 19.0856L58.8617 18.4236L59.5532 17.7616L60.4776 17.6486L61.402 17.5356L62.1944 18.0318L62.9868 18.5281L63.3229 19.3319L63.6589 20.1357L63.4339 20.92L63.2088 21.7042L62.6826 22.264L62.1564 22.8238L61.8989 22.8185L61.6414 22.8131L62.1706 22.3998ZM65.8306 22.3453V22.0264L65.9902 22.1858L66.1498 22.3453L65.9902 22.5048L65.8306 22.6643V22.3453ZM13.9032 21.4881L13.9221 21.0295L14.0478 21.3435L14.1735 21.6575L14.0289 21.8021L13.8843 21.9466L13.9032 21.4881ZM66.1255 21.1492V20.3119L66.235 20.7305L66.3445 21.1492L66.235 21.5678L66.1255 21.9865V21.1492ZM67.5848 20.3119L67.5868 18.6372L67.681 19.5397L67.7752 20.4422L67.6791 21.2143L67.5829 21.9865L67.5848 20.3119ZM18.33 21.2517L17.9538 20.8758V20.3083V19.7409L18.4858 19.3685L19.0179 18.9961H19.4063H19.7947L20.1908 19.4336L20.587 19.8711V20.4623V21.0535L20.2998 21.3405L20.0125 21.6276H19.3593H18.7061L18.33 21.2517ZM20.3018 20.5072L20.3756 19.7456L19.8738 19.4772L19.372 19.2088L18.9028 19.3576L18.4337 19.5064L18.2867 20.0917L18.1397 20.6769L18.4453 21.0449L18.7509 21.4128L19.4894 21.3408L20.2279 21.2688L20.3018 20.5072ZM59.735 21.1588L59.3105 20.69L59.4652 20.0741L59.6198 19.4583L60.2117 19.1888L60.8035 18.9193L61.3704 19.1774L61.9372 19.4355L62.0606 20.0809L62.1841 20.7264L61.7332 21.177L61.2823 21.6276H60.7209H60.1596L59.735 21.1588ZM61.4738 21.1013L61.7611 20.8142V20.2933V19.7724L61.4051 19.4771L61.0491 19.1819L60.4635 19.3288L59.8779 19.4757L59.729 19.9445L59.5801 20.4134L59.8412 20.9009L60.1022 21.3884H60.6444H61.1865L61.4738 21.1013ZM13.6449 20.4315V20.1125L13.8045 20.272L13.9641 20.4315L13.8045 20.591L13.6449 20.7505V20.4315ZM12.4785 19.4746L12.4527 18.6373L13.0195 17.4411L13.5863 16.245L14.3761 15.4533L15.1658 14.6616L15.6621 14.4034L16.1584 14.1453L15.0113 15.1645L13.8643 16.1836L13.3698 17.1522L12.8754 18.1208L12.6898 19.2163L12.5043 20.3119L12.4785 19.4746ZM66.1255 19.4746V18.6373L66.235 19.0559L66.3445 19.4746L66.235 19.8932L66.1255 20.3119V19.4746ZM13.9221 19.2354V18.6373L14.0428 18.9363L14.1636 19.2354L14.0428 19.5344L13.9221 19.8334V19.2354ZM14.1246 18.446L14.1237 18.2547L14.4614 17.6087L14.7991 16.9627L15.5984 16.245L16.3978 15.5273L15.7639 16.245L15.13 16.9627L14.6277 17.8L14.1254 18.6373L14.1246 18.446ZM65.3247 17.4536L64.699 16.4399L63.4224 15.8042L62.1458 15.1684H62.5051H62.8643L63.9509 15.8571L65.0375 16.5458L65.5811 17.4247L66.1246 18.3036L66.0374 18.3854L65.9503 18.4673L65.3247 17.4536ZM67.2026 18.0584L67.0543 17.4918L67.3072 17.7446L67.5601 17.9973L67.4555 18.3111L67.3508 18.6249L67.2026 18.0584ZM23.2143 16.9406L22.3824 16.0668L21.6643 15.6185L20.9461 15.1702L21.1726 15.1693L21.3991 15.1684L22.2983 15.7912L23.1975 16.4139L23.5735 16.9873L23.9494 17.5607H24.3105H24.6716L24.8061 17.2104L24.9406 16.86L24.403 16.1054L23.8653 15.3508L22.7777 14.6615L21.6902 13.9723H21.9405H22.1909L23.1529 14.6687L24.1149 15.3651L24.6638 16.1356L25.2128 16.906L24.9689 17.2932L24.7249 17.6804L24.3856 17.7473L24.0462 17.8143L23.2143 16.9406ZM56.7349 16.76L57.3325 16.0788L58.2206 15.6236L59.1088 15.1684L59.2978 15.179L59.4869 15.1896L58.5294 15.6844L57.5719 16.1792L56.8546 16.8102L56.1373 17.4411L56.7349 16.76ZM66.6838 16.9132L66.5204 16.4842L66.8178 16.7793L67.1153 17.0743L66.9813 17.2082L66.8473 17.3422L66.6838 16.9132ZM4.45463 16.6459L4.33272 16.4488L4.81317 16.4665L5.29362 16.4842L5.95099 14.8096L6.60837 13.135L7.46485 11.8192L8.32133 10.5034L9.36727 9.51094L10.4132 8.51846L11.7564 7.67079L13.0997 6.82311L14.7034 6.30535L16.307 5.78759L16.4191 5.8996L16.5312 6.01162L15.3873 6.31821L14.2434 6.6248L12.6104 7.46635L10.9775 8.30791L9.8189 9.34897L8.66024 10.39L7.75848 11.7477L6.85671 13.1054L6.23958 14.6752L5.62244 16.245L5.43032 16.544L5.23819 16.843H4.90737H4.57655L4.45463 16.6459ZM55.0583 16.7234V16.6038H55.178H55.2977V16.7234V16.8431H55.178H55.0583V16.7234ZM74.5323 16.3185L74.3316 16.0057L73.6756 14.4664L73.0195 12.9271L73.2674 13.1748L73.5154 13.4226L74.0875 14.8338L74.6596 16.245L75.1322 16.3188L75.6049 16.3926L75.731 15.9599L75.8572 15.5273L75.8087 16.0057L75.7601 16.4842L75.2466 16.5577L74.733 16.6312L74.5323 16.3185ZM55.2977 16.2897V16.2149L56.0757 15.5122L56.8537 14.8096L56.1506 15.5871L55.4475 16.3646H55.3726H55.2977V16.2897ZM65.9276 15.8584L65.4715 15.3522L64.2746 14.6645L63.0777 13.9768L63.33 13.9745L63.5824 13.9723L64.6467 14.6538L65.7109 15.3353L66.1669 15.8499L66.623 16.3646H66.5033H66.3836L65.9276 15.8584ZM4.41919 15.4077L4.54619 14.5704L5.51344 12.6026L6.48068 10.6349L8.20756 8.86655L9.93444 7.0982L10.7723 6.70414L11.6101 6.31009L11.1651 6.61253L10.72 6.91497L9.58418 7.80462L8.44836 8.69427L7.61014 9.71846L6.77192 10.7427L5.98957 12.1302L5.20723 13.5178L4.74971 14.8814L4.2922 16.245L4.41919 15.4077ZM0 15.0577V14.1961L0.731729 12.2999L1.46345 10.4037L2.61419 8.65931L3.76493 6.91497L5.09188 5.57256L6.41883 4.23014L8.05694 3.14922L9.69506 2.06831L11.3707 1.34163L13.0464 0.61496L14.5454 0.30748L16.0444 0L16.4605 0.434026L16.8766 0.868052L16.3609 0.558879L15.8453 0.249707L14.4459 0.554641L13.0464 0.85957L10.8362 1.89654L8.62588 2.9335L7.21672 4.01713L5.80755 5.10077L4.70199 6.32963L3.59643 7.5585L2.49535 9.32397L1.39427 11.0895L0.821876 12.7103L0.249484 14.3311L0.244438 14.989L0.239391 15.6469H0.563966H0.88854L1.60662 13.6545L2.3247 11.6622L3.35846 9.89325L4.39222 8.12435L6.09026 6.42739L7.7883 4.73043L9.22045 3.89555L10.6526 3.06067L11.7298 2.63168L12.807 2.20269L14.6791 1.65928L16.5512 1.11586L16.3548 1.29869L16.1584 1.48151L14.0057 2.13038L11.8529 2.77925L10.6543 3.37787L9.45568 3.97648L7.82064 5.20649L6.18559 6.43651L4.92002 8.11112L3.65445 9.78575L3.01929 10.9819L2.38414 12.1781L1.72299 13.9723L1.06183 15.7665L0.530916 15.843L5.47907e-06 15.9194L0 15.0577ZM78.8475 15.6003L78.6535 15.288L78.1501 13.85L77.6467 12.412L76.7085 10.6279L75.7704 8.84381L74.3428 7.31861L72.9151 5.7934L71.4675 4.76796L70.0198 3.74252L68.8229 3.15563L67.626 2.56873L66.1897 2.15393L64.7534 1.73912L64.2148 1.52121L63.6761 1.3033V0.968621V0.633938L64.0399 0.332202L64.4037 0.0304715L65.9669 0.415967L67.53 0.801463L69.134 1.56234L70.738 2.32322L72.0546 3.21612L73.3712 4.10902L74.9478 5.75122L76.5244 7.39343L77.4019 8.71869L78.2795 10.044L79.1317 12.1328L79.9838 14.2217L79.9092 14.9922L79.8346 15.7626L79.438 15.8376L79.0414 15.9126L78.8475 15.6003ZM79.6376 14.6088L79.4952 13.5708L78.8421 12.0371L78.1891 10.5034L77.0113 8.64543L75.8335 6.78742L74.1823 5.28133L72.5311 3.77523L70.677 2.68401L68.8229 1.59278L67.2942 1.07315L65.7656 0.553513L64.9096 0.504628L64.0537 0.455736L63.976 0.82791L63.8983 1.20008L65.7622 1.76236L67.626 2.32463L69.0623 3.0368L70.4986 3.74896L71.4854 4.42533L72.4722 5.10169L73.8926 6.49925L75.3129 7.8968L76.4676 9.74825L77.6223 11.5997L78.3063 13.5635L78.9903 15.5273L78.9935 15.5871L78.9967 15.6469H79.3883H79.7799L79.6376 14.6088ZM16.5175 15.5273V15.4077H16.6372H16.7569V15.5273V15.6469H16.6372H16.5175V15.5273ZM17.0761 15.2482L17.2357 15.0887L17.3952 15.2482L17.5548 15.4077H17.2357H16.9165L17.0761 15.2482ZM75.1586 14.4266L74.8132 13.3807L73.7153 11.7L72.6174 10.0193L70.9627 8.52682L69.308 7.03435L67.6387 6.15769L65.9694 5.28104L64.6432 4.84803L63.3171 4.41502L64.1549 4.55616L64.9928 4.69731L66.383 5.25672L67.7733 5.81612L69.2824 6.89233L70.7916 7.96854L72.3911 9.69504L73.9906 11.4215L74.8366 13.1794L75.6826 14.9372L75.5933 15.2049L75.504 15.4725L75.1586 14.4266ZM17.7942 15.0089L17.9538 14.8495L18.1134 15.0089L18.273 15.1684H17.9538H17.6346L17.7942 15.0089ZM20.3028 15.005L20.617 14.8794L20.7616 15.0239L20.9062 15.1684L20.4474 15.1496L19.9886 15.1307L20.3028 15.005ZM59.6066 15.0488V14.9292H59.7263H59.846V15.0488V15.1684H59.7263H59.6066V15.0488ZM60.5071 14.9992L61.0485 14.8952L61.4646 15.0041L61.8808 15.1129L60.9232 15.1081L59.9657 15.1033L60.5071 14.9992ZM18.8515 14.7708L19.1507 14.6501L19.45 14.7708L19.7492 14.8914H19.1507H18.5523L18.8515 14.7708ZM56.9734 14.8063V14.6666L57.9908 14.2051L59.0082 13.7436L59.4869 13.7543L59.9657 13.7651L59.0082 14.0661L58.0506 14.3672L57.512 14.6566L56.9734 14.946V14.8063ZM16.2781 14.0919V13.9723H16.3978H16.5175V14.0919V14.2115H16.3978H16.2781V14.0919ZM17.116 13.7331L17.5947 13.5274H17.9538H18.3129L17.8341 13.7331L17.3553 13.9387H16.9963H16.6372L17.116 13.7331ZM21.1456 13.8128L21.3052 13.6533L21.4648 13.8128L21.6244 13.9723H21.3052H20.986L21.1456 13.8128ZM62.4343 13.8089L62.7485 13.6832L62.8932 13.8278L63.0378 13.9723L62.579 13.9534L62.1201 13.9345L62.4343 13.8089ZM20.3028 13.5696L20.617 13.444L20.7616 13.5885L20.9062 13.7331L20.4474 13.7142L19.9886 13.6953L20.3028 13.5696ZM60.5043 13.5642L61.0429 13.4605L61.5815 13.5642L62.1201 13.6679H61.0429H59.9657L60.5043 13.5642ZM72.3097 11.9642L71.8075 11.1522L70.1917 9.63168L68.5758 8.11113L67.135 7.347L65.6941 6.58287L63.7874 6.06795L61.8808 5.55301L61.5423 5.22927L61.2037 4.90552L61.5117 4.53467L61.8197 4.16382L62.5684 4.19531L63.3171 4.2268L62.4792 4.37474L61.6414 4.52267V4.86646V5.21026L63.7958 5.82892L65.9503 6.44757L67.5598 7.34731L69.1693 8.24705L70.6718 9.76912L72.1743 11.2912L72.6067 12.0337L73.0392 12.7761H72.9255H72.8118L72.3097 11.9642ZM11.7298 6.18732V6.05133L12.9866 5.4988L14.2434 4.94627L15.8146 4.55504L17.3859 4.16381L17.9691 4.1863L18.5523 4.20877L16.9963 4.5265L15.4403 4.84424L14.4827 5.19926L13.5252 5.55429L12.6275 5.9388L11.7298 6.32331V6.18732ZM16.9364 5.68L17.2357 5.55933L17.5349 5.68L17.8341 5.80066H17.2357H16.6372L16.9364 5.68ZM18.0974 5.43799L18.3608 5.24035L18.5121 4.88151L18.6635 4.52266L18.6079 4.9813L18.5523 5.43994L18.1932 5.53778L17.8341 5.63563L18.0974 5.43799Z" fill="#009968"/>
</svg>
