<svg width="16" height="16" viewBox="0 0 16 16" fill="none" xmlns="http://www.w3.org/2000/svg">
<g clip-path="url(#clip0_157_174)">
<path d="M4.08709 15.9142C3.97978 15.7912 3.96875 15.7205 3.96875 15.1559V14.5889L4.0601 14.4976C4.17457 14.3831 4.30666 14.3774 4.42795 14.4816L4.51562 14.5569L4.52569 15.0285L4.53575 15.5H8.00225H11.4688V12.375V9.25H10.3906H9.3125V9.6704C9.3125 9.91195 9.29774 10.1232 9.2778 10.167C9.20763 10.321 8.99225 10.3566 8.8533 10.2371C8.76577 10.1619 8.76561 10.161 8.75488 9.70587L8.74414 9.25H7.99707H7.25V10.4721C7.25 11.5772 7.25476 11.6924 7.29978 11.6751C7.46393 11.6121 7.51266 11.6187 7.75388 11.7363L8 11.8563L8.24611 11.7363C8.48734 11.6187 8.53607 11.6121 8.70022 11.6751C8.7433 11.6916 8.75002 11.6591 8.75017 11.433C8.75039 11.1269 8.79194 10.9507 8.87431 10.9066C8.98371 10.8481 9.15331 10.8692 9.2358 10.9517C9.31214 11.0281 9.3125 11.0313 9.3125 11.6562C9.3125 12.2812 9.31214 12.2844 9.2358 12.3608C9.12444 12.4721 8.97233 12.4624 8.72822 12.3282L8.52938 12.2189L8.31235 12.3282C8.19298 12.3883 8.05242 12.4375 8 12.4375C7.94758 12.4375 7.80702 12.3883 7.68765 12.3282L7.47062 12.2189L7.27178 12.3282C7.02767 12.4624 6.87556 12.4721 6.7642 12.3608L6.6875 12.2841V10.767V9.25H5.60938H4.53125V11.4229C4.53125 13.209 4.52351 13.6143 4.48774 13.6999C4.41166 13.882 4.15396 13.9145 4.03055 13.7576C3.97152 13.6826 3.96875 13.6274 3.96875 12.527V11.375H3.81095C3.56305 11.375 3.36585 11.2511 3.23915 11.0156C3.174 10.8946 3.17188 10.8566 3.17188 9.8125C3.17188 8.97955 3.18164 8.70595 3.21482 8.60938C3.24849 8.51134 3.49448 8.2466 4.35531 7.38194L5.45287 6.27951L5.19349 6.02257C5.05083 5.88125 4.92103 5.74453 4.90503 5.71875C4.82486 5.5895 4.92216 5.37006 5.07686 5.33123C5.11968 5.32049 5.19574 5.32945 5.24589 5.35116C5.29603 5.37287 5.5871 5.6261 5.89271 5.9139C6.46736 6.45507 6.58919 6.53955 6.87254 6.59328C7.08995 6.63452 8.91005 6.63452 9.12745 6.59328C9.21943 6.57584 9.35328 6.53321 9.4249 6.49854C9.50111 6.46164 9.97878 6.03749 10.5769 5.47557C11.1389 4.9476 11.6965 4.44927 11.8159 4.36818C12.2198 4.09386 12.2773 4.08437 13.6562 4.06435C14.9601 4.04541 14.9101 4.05207 15.165 3.86356C15.2754 3.782 15.4308 3.54123 15.4567 3.41186L15.4766 3.3125L13.793 3.31287C12.4078 3.31318 12.0789 3.32142 11.9375 3.35938C11.6936 3.42484 11.6031 3.41847 11.5142 3.32955C11.4248 3.24012 11.4119 3.0817 11.4855 2.97661C11.5488 2.88631 11.8708 2.78827 12.1924 2.76146L12.4447 2.74042L12.4255 2.60022C12.4149 2.52311 12.4062 2.42868 12.4062 2.39037C12.4062 2.32589 12.3889 2.31961 12.1728 2.30574C11.5756 2.26741 11.1247 1.80338 11.1167 1.21875C11.1136 0.994562 11.1583 0.880072 11.3019 0.744176C11.4166 0.635653 11.5314 0.593695 11.713 0.593981C11.8288 0.594162 12.9071 0.781581 13.2422 0.859782C13.3122 0.876118 13.3125 0.874478 13.3125 0.49122C13.3125 0.233466 13.3249 0.0938579 13.35 0.06875C13.3712 0.0475644 13.4727 0.03125 13.5833 0.03125C13.7449 0.03125 13.7847 0.0418095 13.8114 0.0916956C13.8292 0.124941 13.8438 0.315052 13.8438 0.514166C13.8438 0.87378 13.8442 0.876078 13.9141 0.859269C14.2237 0.784756 15.3274 0.59375 15.4484 0.59375C15.6299 0.59375 15.7852 0.661716 15.891 0.787381C15.9639 0.874079 15.9688 0.901952 15.9688 1.23802C15.9688 1.65365 15.9315 1.75768 15.6993 1.98984C15.5092 2.17998 15.2647 2.28769 14.9821 2.30582L14.7578 2.32022L14.7287 2.53511L14.6996 2.75H15.2546C15.6092 2.75 15.8383 2.76309 15.8892 2.78627C15.9687 2.8225 15.9688 2.82295 15.9688 3.24028C15.9688 3.64576 15.9659 3.6637 15.8714 3.85084C15.6588 4.27204 15.2526 4.54105 14.7382 4.60123L14.4487 4.63512L14.3976 5.00446C14.3399 5.42198 14.3176 5.47873 14.1777 5.56406C14.0901 5.61749 14.0182 5.62477 13.5781 5.62477C12.8647 5.62477 12.8332 5.60105 12.7494 5L12.6992 4.64062L12.5783 4.64816C12.2683 4.66749 12.0261 4.85634 10.7969 6.03702L10.5469 6.27717L11.6443 7.38077C12.502 8.24336 12.7511 8.51167 12.7849 8.60938C12.8185 8.70641 12.8281 8.97561 12.8281 9.8125C12.8281 10.8051 12.8235 10.8993 12.7698 11C12.6373 11.2483 12.441 11.375 12.1887 11.375H12.0312V13.5579V15.7408L11.9597 15.8469L11.8881 15.9531L8.01152 15.9611C4.34953 15.9686 4.13226 15.966 4.08709 15.9142ZM3.93125 10.8062C3.95872 10.7788 3.96875 10.5221 3.96875 9.84638V8.924L5.01639 7.87469L6.06403 6.82538L5.96566 6.75266L5.86729 6.67993L4.79302 7.75386L3.71875 8.82779V9.80297C3.71875 10.6987 3.7232 10.7807 3.77344 10.81C3.84618 10.8524 3.88608 10.8514 3.93125 10.8062ZM12.2208 10.8114C12.2786 10.7805 12.2812 10.736 12.2812 9.80342V8.82779L11.207 7.75386L10.1327 6.67993L10.0343 6.75266L9.93597 6.82538L10.9836 7.87469L12.0312 8.924V9.84638C12.0312 10.8706 12.0388 10.9088 12.2208 10.8114ZM10.2187 7.89165L9.42188 7.09581L9.29688 7.12528C9.22812 7.14149 8.64453 7.15476 8 7.15476C7.35547 7.15476 6.77187 7.14149 6.70312 7.12528L6.57812 7.09581L5.78133 7.89165L4.98453 8.6875H8H11.0155L10.2187 7.89165ZM13.8621 4.85156L13.896 4.625H13.5705H13.245L13.2611 4.71094C13.27 4.7582 13.2861 4.86422 13.297 4.94654L13.3167 5.09621L13.5724 5.08717L13.8281 5.07812L13.8621 4.85156ZM14.1673 2.58594C14.2036 2.2836 14.2676 2.3125 13.5619 2.3125H12.9363L12.9508 2.38281C12.9588 2.42148 12.974 2.51992 12.9846 2.60156L13.0038 2.75H13.5757H14.1475L14.1673 2.58594ZM13.3063 1.60256C13.3148 1.45453 13.3091 1.4379 13.2438 1.42223C12.9682 1.35606 11.704 1.13041 11.6827 1.14359C11.5964 1.1969 11.7257 1.51692 11.8814 1.63572C12.0381 1.75526 12.1757 1.77625 12.7656 1.77066L13.2969 1.76562L13.3063 1.60256ZM15.1828 1.68784C15.3254 1.60618 15.4473 1.43279 15.4831 1.26079C15.4944 1.20656 15.4906 1.15412 15.4746 1.14424C15.45 1.12905 14.0612 1.37677 13.8984 1.42538C13.8549 1.43838 13.8438 1.47699 13.8438 1.61436V1.787L14.4453 1.77631C15.0191 1.76612 15.0531 1.76204 15.1828 1.68784ZM6.7642 15.017C6.68893 14.9418 6.6875 14.9307 6.6875 14.4219C6.6875 13.9131 6.68893 13.902 6.7642 13.8267C6.83577 13.7551 6.8626 13.75 7.16456 13.75C7.44649 13.75 7.49698 13.7582 7.55623 13.8134C7.6471 13.898 7.67182 14.012 7.62425 14.1268C7.57688 14.2412 7.50868 14.2812 7.36143 14.2812C7.2502 14.2812 7.25 14.2815 7.25 14.4219V14.5625H8H8.75V14.4219C8.75 14.2815 8.74981 14.2812 8.63857 14.2812C8.49132 14.2812 8.42312 14.2412 8.37575 14.1268C8.32818 14.012 8.35291 13.898 8.44377 13.8134C8.50288 13.7583 8.55353 13.75 8.83056 13.75C9.30619 13.75 9.29437 13.7338 9.30674 14.4028L9.3166 14.9362L9.23785 15.015L9.15909 15.0938H8H6.84091L6.7642 15.017ZM7.89062 6.29188C7.47928 6.19513 7.26794 5.94757 7.26794 5.5625C7.26794 5.31762 7.34423 5.1517 7.52994 4.99275C7.89312 4.68187 8.43502 4.79519 8.66413 5.22992C8.80416 5.49562 8.73515 5.88685 8.51067 6.0999C8.36614 6.23708 8.06028 6.33178 7.89062 6.29188ZM8.125 5.6875C8.20099 5.61151 8.20532 5.50899 8.13578 5.43215C8.03049 5.31581 7.8125 5.39644 7.8125 5.55172C7.8125 5.6414 7.91519 5.75 8 5.75C8.03438 5.75 8.09062 5.72188 8.125 5.6875ZM1.82986 5.56393C1.69717 5.47647 1.65692 5.3777 1.6218 5.05347C1.57246 4.598 1.60659 4.64158 1.26822 4.60199C0.74701 4.54099 0.342323 4.27426 0.128581 3.85084C0.0341091 3.6637 0.03125 3.64576 0.03125 3.24028C0.03125 2.82295 0.0313296 2.8225 0.110845 2.78627C0.162308 2.76282 0.399877 2.75 0.782993 2.75H1.37555L1.35704 2.57031C1.34686 2.47148 1.33381 2.37487 1.32805 2.35561C1.32186 2.33492 1.21114 2.31499 1.05722 2.30687C0.736658 2.28997 0.502838 2.19198 0.3007 1.98984C0.0685355 1.75768 0.03125 1.65365 0.03125 1.23802C0.03125 0.901952 0.0360598 0.874079 0.109012 0.787381C0.214752 0.661716 0.370114 0.59375 0.551629 0.59375C0.672592 0.59375 1.77633 0.784756 2.08594 0.859269C2.15578 0.876078 2.15625 0.87378 2.15625 0.514166C2.15625 0.315052 2.17081 0.124941 2.1886 0.0916956C2.2153 0.0418095 2.25515 0.03125 2.41672 0.03125C2.52733 0.03125 2.62881 0.0475644 2.65 0.06875C2.67511 0.0938579 2.6875 0.233466 2.6875 0.49122C2.6875 0.874478 2.68781 0.876118 2.75781 0.859782C3.09291 0.781581 4.17116 0.594163 4.28703 0.593981C4.46857 0.593693 4.5834 0.635653 4.6981 0.744176C4.84173 0.880072 4.88642 0.994562 4.88332 1.21875C4.87751 1.63988 4.6453 2.00292 4.2606 2.1923C4.09357 2.27453 4.00911 2.29526 3.79523 2.30648L3.53393 2.3202L3.51565 2.46479C3.5056 2.54431 3.49326 2.63908 3.48822 2.6754C3.47966 2.73709 3.49675 2.74256 3.74911 2.75891C3.89765 2.76854 4.10806 2.79944 4.21669 2.82759C4.32654 2.85606 4.81364 3.07858 5.31411 3.32893L6.21401 3.77908L6.31475 3.60048C6.5326 3.21429 6.98437 2.89543 7.45312 2.79701C7.73365 2.73811 8.26635 2.73811 8.54688 2.79701C9.02133 2.89663 9.4661 3.21226 9.6893 3.60776L9.78609 3.77925L10.2208 3.5615C10.4598 3.44174 10.6918 3.34375 10.7364 3.34375C10.8492 3.34375 11 3.50087 11 3.61838C11 3.66895 10.9734 3.74386 10.941 3.78485C10.9077 3.82682 10.5563 4.02068 10.1363 4.22868C9.49571 4.54593 9.3598 4.60194 9.17188 4.62609C8.89296 4.66194 7.11717 4.66285 6.82812 4.6273C6.63008 4.60294 6.49697 4.54378 5.42188 4.00234C4.76875 3.67341 4.15703 3.3838 4.0625 3.35876C3.92226 3.32162 3.58145 3.31317 2.21094 3.31287C0.322161 3.31245 0.472908 3.29039 0.590825 3.55003C0.662662 3.70821 0.833985 3.88302 1.00864 3.97635C1.13717 4.04503 1.1721 4.04734 2.34375 4.06473C3.37443 4.08002 3.57151 4.09048 3.71875 4.13773C3.97417 4.21969 4.25323 4.38513 4.45012 4.57132C4.66185 4.77154 4.68234 4.88496 4.53365 5.03365C4.39528 5.17203 4.29648 5.15658 4.05529 4.95888C3.8373 4.7802 3.61783 4.67083 3.41083 4.63773C3.31178 4.62189 3.28101 4.62715 3.28023 4.66007C3.27638 4.8231 3.18958 5.37522 3.15873 5.43286C3.13799 5.47162 3.07621 5.53066 3.02144 5.56405C2.93379 5.6175 2.86206 5.62475 2.42188 5.62468C1.97946 5.62458 1.91128 5.6176 1.82986 5.56393ZM2.6985 4.92969C2.73787 4.60188 2.75898 4.625 2.42032 4.625H2.1219L2.14152 4.82031C2.17042 5.10785 2.15543 5.09375 2.43217 5.09375H2.67879L2.6985 4.92969ZM9.20195 4.06295L9.28298 4.03214L9.22215 3.9129C9.12861 3.72957 8.91175 3.53159 8.6875 3.42483C8.48751 3.32962 8.47689 3.32812 8 3.32812C7.52311 3.32812 7.51249 3.32962 7.3125 3.42483C7.08817 3.53163 6.87138 3.72958 6.77775 3.91311L6.71682 4.03255L6.7881 4.06117C6.88604 4.10049 9.09891 4.10212 9.20195 4.06295ZM2.9485 2.58594C2.98469 2.28461 3.03844 2.3125 2.4216 2.3125H1.87445L1.89296 2.49219C1.90314 2.59102 1.91688 2.68945 1.9235 2.71094C1.93247 2.74004 2.06212 2.75 2.43217 2.75H2.92879L2.9485 2.58594ZM2.15625 1.61148C2.15625 1.47685 2.14493 1.43833 2.10156 1.42538C1.93876 1.37677 0.549979 1.12905 0.5254 1.14424C0.440433 1.19675 0.618372 1.56524 0.775628 1.66243C0.93587 1.76147 1.03127 1.77457 1.61719 1.77805L2.15625 1.78125V1.61148ZM3.87437 1.74746C3.95137 1.72972 4.06189 1.67896 4.11996 1.63467C4.27422 1.51701 4.40319 1.19667 4.3176 1.14378C4.29693 1.131 3.06627 1.35081 2.75781 1.42238C2.69689 1.43651 2.6875 1.45879 2.6875 1.58914C2.6875 1.67188 2.69687 1.74896 2.70833 1.76042C2.74171 1.79379 3.72051 1.78292 3.87437 1.74746Z" fill="#9C9C9C"/>
</g>
<defs>
<clipPath id="clip0_157_174">
<rect width="16" height="16" fill="white"/>
</clipPath>
</defs>
</svg>
