<svg width="16" height="16" viewBox="0 0 16 16" fill="none" xmlns="http://www.w3.org/2000/svg">
<g clip-path="url(#clip0_157_179)">
<path d="M8 14.6667V8.66675" stroke="#707070" stroke-width="1.33333" stroke-linecap="round" stroke-linejoin="round"/>
<path d="M10.1133 1.47337C10.2794 1.38053 10.4664 1.33179 10.6567 1.33179C10.8469 1.33179 11.034 1.38053 11.2 1.47337L14 3.0467C14.1983 3.15884 14.3633 3.32161 14.4781 3.51839C14.5929 3.71517 14.6533 3.93889 14.6533 4.1667C14.6533 4.39451 14.5929 4.61824 14.4781 4.81502C14.3633 5.01179 14.1983 5.17457 14 5.2867L5.88001 9.86004C5.71348 9.95503 5.52507 10.005 5.33335 10.005C5.14163 10.005 4.95321 9.95503 4.78668 9.86004L2.00001 8.2867C1.80171 8.17457 1.63674 8.01179 1.52195 7.81502C1.40716 7.61824 1.34668 7.39451 1.34668 7.1667C1.34668 6.93889 1.40716 6.71517 1.52195 6.51839C1.63674 6.32161 1.80171 6.15884 2.00001 6.0467L10.1133 1.47337Z" stroke="#707070" stroke-width="1.33333" stroke-linecap="round" stroke-linejoin="round"/>
<path d="M13.3337 8.66675V11.2467C13.3339 11.4984 13.265 11.7452 13.1345 11.9604C13.004 12.1755 12.8169 12.3507 12.5937 12.4667L8.59366 14.5201C8.41039 14.6153 8.20687 14.6651 8.00033 14.6651C7.79378 14.6651 7.59027 14.6153 7.40699 14.5201L3.40699 12.4667C3.18372 12.3507 2.99661 12.1755 2.86611 11.9604C2.73561 11.7452 2.66673 11.4984 2.66699 11.2467V8.66675" stroke="#707070" stroke-width="1.33333" stroke-linecap="round" stroke-linejoin="round"/>
<path d="M14 8.28658C14.1983 8.17445 14.3633 8.01168 14.4781 7.8149C14.5929 7.61812 14.6533 7.39439 14.6533 7.16658C14.6533 6.93877 14.5929 6.71505 14.4781 6.51827C14.3633 6.32149 14.1983 6.15872 14 6.04658L5.88668 1.46658C5.72127 1.37186 5.53396 1.32202 5.34335 1.32202C5.15273 1.32202 4.96543 1.37186 4.80001 1.46658L2.00001 3.04658C1.80171 3.15872 1.63674 3.32149 1.52195 3.51827C1.40716 3.71505 1.34668 3.93877 1.34668 4.16658C1.34668 4.39439 1.40716 4.61812 1.52195 4.8149C1.63674 5.01168 1.80171 5.17445 2.00001 5.28658L10.12 9.85992C10.2853 9.9549 10.4727 10.0049 10.6633 10.0049C10.854 10.0049 11.0414 9.9549 11.2067 9.85992L14 8.28658Z" stroke="#707070" stroke-width="1.33333" stroke-linecap="round" stroke-linejoin="round"/>
</g>
<defs>
<clipPath id="clip0_157_179">
<rect width="16" height="16" fill="white"/>
</clipPath>
</defs>
</svg>
