<svg width="28" height="28" viewBox="0 0 28 28" fill="none" xmlns="http://www.w3.org/2000/svg">
<path d="M3.5 12.8333H7C7.61884 12.8333 8.21233 13.0791 8.64992 13.5167C9.0875 13.9543 9.33333 14.5478 9.33333 15.1666V18.6666C9.33333 19.2855 9.0875 19.879 8.64992 20.3166C8.21233 20.7541 7.61884 21 7 21H5.83333C5.21449 21 4.621 20.7541 4.18342 20.3166C3.74583 19.879 3.5 19.2855 3.5 18.6666V12.8333ZM3.5 12.8333C3.5 11.4544 3.77159 10.0891 4.29926 8.81514C4.82694 7.54122 5.60036 6.38371 6.57538 5.40869C7.55039 4.43368 8.70791 3.66025 9.98182 3.13258C11.2557 2.6049 12.6211 2.33331 14 2.33331C15.3789 2.33331 16.7443 2.6049 18.0182 3.13258C19.2921 3.66025 20.4496 4.43368 21.4246 5.40869C22.3996 6.38371 23.1731 7.54122 23.7007 8.81514C24.2284 10.0891 24.5 11.4544 24.5 12.8333M24.5 12.8333V18.6666C24.5 19.2855 24.2542 19.879 23.8166 20.3166C23.379 20.7541 22.7855 21 22.1667 21H21C20.3812 21 19.7877 20.7541 19.3501 20.3166C18.9125 19.879 18.6667 19.2855 18.6667 18.6666V15.1666C18.6667 14.5478 18.9125 13.9543 19.3501 13.5167C19.7877 13.0791 20.3812 12.8333 21 12.8333H24.5Z" stroke="url(#paint0_linear_65_439)" stroke-width="1.75" stroke-linecap="round" stroke-linejoin="round"/>
<path d="M24.5 18.6667V21C24.5 22.2377 24.0083 23.4247 23.1332 24.2999C22.258 25.175 21.071 25.6667 19.8333 25.6667H14" stroke="url(#paint1_linear_65_439)" stroke-width="1.75" stroke-linecap="round" stroke-linejoin="round"/>
<defs>
<linearGradient id="paint0_linear_65_439" x1="14" y1="2.33331" x2="14" y2="21" gradientUnits="userSpaceOnUse">
<stop stop-color="#00FFAB"/>
<stop offset="1" stop-color="#007F56"/>
</linearGradient>
<linearGradient id="paint1_linear_65_439" x1="19.25" y1="18.6667" x2="19.25" y2="25.6667" gradientUnits="userSpaceOnUse">
<stop stop-color="#00FFAB"/>
<stop offset="1" stop-color="#007F56"/>
</linearGradient>
</defs>
</svg>
