<svg width="199" height="34" viewBox="0 0 199 34" fill="none" xmlns="http://www.w3.org/2000/svg">
<g clip-path="url(#clip0_15_192)">
<path d="M199 25.2411H194.852V15.6679C194.852 15.1254 194.757 14.6415 194.566 14.216C194.384 13.7798 194.134 13.4076 193.816 13.0991C193.496 12.7906 193.118 12.5566 192.682 12.3971C192.257 12.2269 191.795 12.1418 191.295 12.1418H184.034V25.2411H179.886V10.0516C179.886 9.76444 179.94 9.49852 180.046 9.25387C180.152 8.99859 180.301 8.78054 180.492 8.5997C180.683 8.40824 180.907 8.25933 181.162 8.15295C181.418 8.04659 181.689 7.99341 181.975 7.99341H191.326C191.847 7.99341 192.394 8.0519 192.969 8.16891C193.554 8.28591 194.129 8.47738 194.693 8.7433C195.267 8.99859 195.809 9.32833 196.32 9.73253C196.842 10.1261 197.299 10.6101 197.693 11.1845C198.096 11.7482 198.415 12.4024 198.65 13.147C198.884 13.8916 199 14.7318 199 15.6679V25.2411Z" fill="white"/>
<path d="M176.344 19.4175C176.344 20.1302 176.254 20.7736 176.072 21.348C175.893 21.9117 175.653 22.4116 175.355 22.8479C175.056 23.2733 174.711 23.6403 174.318 23.9487C173.924 24.2466 173.509 24.4912 173.073 24.6827C172.648 24.8741 172.212 25.0178 171.764 25.1135C171.329 25.1986 170.914 25.2411 170.521 25.2411H163.037C162.463 25.2411 161.835 25.1401 161.154 24.938C160.474 24.7359 159.841 24.4061 159.256 23.9487C158.681 23.4807 158.197 22.8797 157.804 22.1458C157.421 21.4011 157.229 20.4917 157.229 19.4175V13.8012C157.229 12.7374 157.421 11.8386 157.804 11.1047C158.197 10.3601 158.681 9.75912 159.256 9.30174C159.841 8.83372 160.474 8.49865 161.154 8.29655C161.835 8.09444 162.463 7.99341 163.037 7.99341H170.521C171.584 7.99341 172.488 8.18486 173.233 8.5678C173.978 8.95071 174.577 9.4347 175.035 10.0197C175.492 10.5941 175.822 11.2217 176.025 11.9025C176.237 12.5832 176.344 13.2161 176.344 13.8012V19.4175ZM172.195 13.8331C172.195 13.2587 172.052 12.8332 171.764 12.5566C171.478 12.2801 171.063 12.1418 170.521 12.1418H163.069C162.516 12.1418 162.096 12.2854 161.809 12.5726C161.521 12.8491 161.378 13.2587 161.378 13.8012V19.4175C161.378 19.9599 161.521 20.3748 161.809 20.662C162.096 20.9492 162.516 21.0927 163.069 21.0927H170.521C171.084 21.0927 171.504 20.9492 171.78 20.662C172.058 20.3748 172.195 19.9599 172.195 19.4175V13.8331Z" fill="white"/>
<path d="M154.9 12.1418H145.566C145.002 12.1418 144.577 12.2854 144.29 12.5726C144.003 12.8491 143.859 13.2587 143.859 13.8012V25.2411H139.71V13.8012C139.71 13.0885 139.801 12.4503 139.982 11.8865C140.163 11.3228 140.402 10.8281 140.7 10.4027C141.008 9.96655 141.359 9.59957 141.753 9.30174C142.146 8.99326 142.556 8.7433 142.981 8.55183C143.417 8.36038 143.854 8.22209 144.29 8.137C144.736 8.04126 145.151 7.99341 145.534 7.99341H154.9V12.1418Z" fill="white"/>
<mask id="mask0_15_192" style="mask-type:alpha" maskUnits="userSpaceOnUse" x="109" y="0" width="33" height="34">
<path d="M141.303 0.988525H109.303V33.0115H141.303V0.988525Z" fill="#D9D9D9"/>
</mask>
<g mask="url(#mask0_15_192)">
<path d="M95.9907 31.8443C95.3656 31.6519 94.8629 31.2042 94.4924 30.5103L94.3198 30.1875V17.5175V4.84744L94.4919 4.47318C94.8062 3.78942 95.5339 3.25305 96.3809 3.08096L96.8287 2.98999L97.2779 3.07217C98.1283 3.22771 98.7205 3.64903 99.1427 4.39854L99.3551 4.77565L99.3917 8.7597L99.4281 12.7437L99.5574 12.9763C99.7672 13.3539 100.613 13.6626 102.401 14.0144L102.819 14.0966L103.24 13.8868L103.661 13.6769L104.218 13.6518L104.774 13.6266L105.093 13.7731C105.269 13.8537 105.501 13.9763 105.609 14.0456L105.805 14.1715L106.375 13.9808C107.247 13.6889 107.698 13.6288 109.28 13.5931C110.87 13.5572 111.086 13.5146 111.213 13.2116L111.298 13.0097L111.184 12.7927C111.051 12.5396 110.572 12.2949 109.733 12.052L109.171 11.8895V8.72261C109.171 4.37397 109.322 3.83339 110.69 3.28924L111.104 3.12462L117.417 3.10312C127.098 3.07015 128.662 3.33916 131.822 5.5814C139.446 10.9898 139.326 24.1471 131.603 29.6209C128.646 31.7169 127.332 31.9466 118.303 31.945L111.98 31.944L111.523 31.8378C109.354 31.3347 109.172 30.7716 109.171 24.5441L109.171 20.4082L109.019 20.2185C108.739 19.8684 108.654 19.853 106.762 19.812L104.974 19.7731L104.573 19.5893C103.84 19.2531 103.325 18.546 103.235 17.7506L103.2 17.4456L103.832 17.4376C104.179 17.4332 105.304 17.4206 106.331 17.4095L108.198 17.3896L108.428 17.2727C108.714 17.1274 108.801 16.8495 108.623 16.6553C108.494 16.5154 106.461 15.6887 106.044 15.6067L105.819 15.5623L105.579 15.7611C104.89 16.3327 103.498 16.2801 102.938 15.6612C102.208 14.854 100.02 16.8721 99.5624 18.7737L99.4417 19.2761L99.3984 24.7318L99.3551 30.1875L99.1509 30.5967C98.6125 31.6751 97.2228 32.2235 95.9907 31.8443ZM125.044 27.2943C129.612 26.4454 132.223 23.314 132.597 18.2352C132.98 13.0408 130.19 9.01812 125.517 8.02655L124.824 7.87944L120.384 7.84677C114.999 7.80713 114.814 7.82731 114.442 8.49616L114.316 8.7238L114.317 11.4157L114.319 14.1077L114.451 14.5691C114.612 15.1371 114.866 15.6392 115.155 15.9629C115.275 16.0979 115.374 16.2364 115.374 16.2707C115.375 16.3049 115.448 16.3687 115.538 16.4124C115.629 16.4561 115.856 16.5792 116.045 16.6858C117.129 17.2983 117.763 17.3783 121.54 17.3789C123.266 17.3793 124.768 17.3969 124.879 17.4183L125.08 17.457V17.7364C125.08 18.4184 124.504 19.1729 123.693 19.5552L123.219 19.7785L119.132 19.8145L115.045 19.8504L114.818 19.973C114.693 20.0403 114.529 20.2179 114.453 20.3677L114.316 20.64V23.619V26.5981L114.478 26.8965C114.639 27.1935 114.934 27.3618 115.447 27.45C115.547 27.4672 117.567 27.4729 119.935 27.4626L124.24 27.4438L125.044 27.2943Z" fill="#00FFAB"/>
</g>
<path d="M106.172 12.1418H96.8385C96.2747 12.1418 95.8493 12.2854 95.562 12.5726C95.275 12.8491 95.1314 13.2587 95.1314 13.8012V25.2411H90.9829V13.8012C90.9829 13.0885 91.0733 12.4503 91.2541 11.8865C91.435 11.3228 91.6744 10.8281 91.9722 10.4027C92.2807 9.96655 92.6316 9.59957 93.0252 9.30174C93.4188 8.99326 93.8282 8.7433 94.2538 8.55183C94.6899 8.36038 95.126 8.22209 95.562 8.137C96.0089 8.04126 96.4237 7.99341 96.8067 7.99341H106.172V12.1418Z" fill="white"/>
<path d="M88.2864 13.7055C88.2864 14.2798 88.1854 14.9021 87.9833 15.5721C87.7812 16.2317 87.4515 16.8486 86.994 17.4231C86.5473 17.9868 85.9568 18.4601 85.2229 18.843C84.4996 19.226 83.6167 19.4175 82.5743 19.4175H75.0913V15.4764H82.5743C83.1382 15.4764 83.5742 15.3063 83.8827 14.9658C84.1912 14.6149 84.3454 14.184 84.3454 13.6735C84.3454 13.131 84.1699 12.7055 83.8188 12.3971C83.4785 12.0886 83.0637 11.9344 82.5743 11.9344H75.0913C74.5276 11.9344 74.0915 12.1099 73.783 12.4609C73.4746 12.8013 73.3203 13.2267 73.3203 13.7373V19.5291C73.3203 20.0823 73.4904 20.513 73.8309 20.8214C74.1819 21.1299 74.6127 21.2841 75.1233 21.2841H82.5743V25.2411H75.0913C74.517 25.2411 73.8946 25.1401 73.2246 24.938C72.565 24.7359 71.9481 24.4114 71.3738 23.9648C70.81 23.5073 70.3367 22.917 69.9537 22.1937C69.5707 21.4598 69.3794 20.5715 69.3794 19.5291V13.7055C69.3794 13.131 69.4804 12.5141 69.6825 11.8546C69.8846 11.1845 70.2091 10.5675 70.6557 10.0038C71.1132 9.42938 71.7035 8.95071 72.4268 8.5678C73.1607 8.18486 74.0489 7.99341 75.0913 7.99341H82.5743C83.1488 7.99341 83.7657 8.09444 84.4251 8.29655C85.0953 8.49865 85.7123 8.82839 86.2759 9.28578C86.8504 9.73253 87.3291 10.3229 87.7121 11.0568C88.0949 11.7801 88.2864 12.663 88.2864 13.7055Z" fill="white"/>
<path d="M68.2307 7.99341C67.7628 9.45065 67.215 10.8866 66.5874 12.3013C65.9599 13.7161 65.2364 15.0669 64.4174 16.3541C63.6091 17.6304 62.6996 18.8164 61.689 19.9121C60.6891 20.9969 59.5777 21.9383 58.3544 22.7361C57.1418 23.5233 55.8176 24.1455 54.3816 24.6029C52.9562 25.0496 51.4085 25.273 49.7386 25.273C49.4514 25.273 49.1802 25.2199 48.9248 25.1135C48.6696 25.0071 48.4462 24.8635 48.2548 24.6827C48.0633 24.4912 47.9143 24.2732 47.8079 24.0285C47.7015 23.7733 47.6484 23.5021 47.6484 23.2148V7.99341H51.7967V20.9651C52.8072 20.9651 53.7753 20.7471 54.7007 20.3109C55.6367 19.8748 56.5196 19.3003 57.3493 18.5877C58.1789 17.8644 58.9447 17.0453 59.6468 16.1306C60.3594 15.2158 60.9924 14.2798 61.5454 13.3225C62.0986 12.3545 62.5666 11.4078 62.9495 10.4824C63.3431 9.55703 63.6356 8.72734 63.8271 7.99341H68.2307Z" fill="white"/>
<path d="M44.1062 19.4175C44.1062 20.1302 44.0158 20.7736 43.8349 21.348C43.6541 21.9117 43.4147 22.4116 43.1169 22.8479C42.819 23.2733 42.4735 23.6403 42.0799 23.9487C41.6863 24.2466 41.2715 24.4912 40.8354 24.6827C40.4098 24.8741 39.9737 25.0178 39.527 25.1135C39.0908 25.1986 38.676 25.2411 38.2824 25.2411H30.7995C30.225 25.2411 29.5975 25.1401 28.9166 24.938C28.236 24.7359 27.603 24.4061 27.018 23.9487C26.4437 23.4807 25.9596 22.8797 25.566 22.1458C25.1832 21.4011 24.9917 20.4917 24.9917 19.4175V13.8012C24.9917 12.7374 25.1832 11.8386 25.566 11.1047C25.9596 10.3601 26.4437 9.75912 27.018 9.30174C27.603 8.83372 28.236 8.49865 28.9166 8.29655C29.5975 8.09444 30.225 7.99341 30.7995 7.99341H38.2824C39.3462 7.99341 40.2503 8.18486 40.9949 8.5678C41.7394 8.95071 42.3405 9.4347 42.7978 10.0197C43.2553 10.5941 43.585 11.2217 43.7871 11.9025C43.9998 12.5832 44.1062 13.2161 44.1062 13.8012V19.4175ZM39.9577 13.8331C39.9577 13.2587 39.8143 12.8332 39.527 12.5566C39.2398 12.2801 38.825 12.1418 38.2824 12.1418H30.8313C30.2783 12.1418 29.8581 12.2854 29.5708 12.5726C29.2836 12.8491 29.14 13.2587 29.14 13.8012V19.4175C29.14 19.9599 29.2836 20.3748 29.5708 20.662C29.8581 20.9492 30.2783 21.0927 30.8313 21.0927H38.2824C38.8462 21.0927 39.2664 20.9492 39.5429 20.662C39.8195 20.3748 39.9577 19.9599 39.9577 19.4175V13.8331Z" fill="white"/>
<path d="M2.2762 31.9291C2.07413 31.8979 1.70816 31.8305 1.49556 31.7399C1.28297 31.6494 1.08583 31.5661 1.03943 31.5452C0.990835 31.5235 0.954486 31.5017 0.919847 31.4782C0.731996 31.3508 0.591298 31.2384 0.505808 31.1438C0.470671 31.1049 0.50373 31.1398 0.476053 31.1078C0.279098 30.8804 0.197902 30.7123 0.148591 30.6082C0.0992804 30.5041 0.024676 30.1796 0.024676 30.1796L0.00395966 17.6187C-0.00934619 9.55163 0.0111606 4.96411 0.0612788 4.79587C0.208239 4.30256 0.63556 3.75924 1.09661 3.47953C2.39847 2.68973 4.11644 2.90181 5.0023 3.96171C5.5462 4.61244 5.53996 4.5608 5.54285 8.44244C5.54429 10.3608 5.57762 12.1565 5.61693 12.4327C5.73839 13.2862 5.90463 13.3683 8.69199 13.9529L9.26446 14.073L9.7652 13.843C10.1937 13.6462 10.3515 13.6127 10.8593 13.6109C11.4844 13.6086 11.8479 13.7062 12.2318 13.9795L12.4553 14.1386L13.1047 13.9516C14.1575 13.6483 14.5377 13.6017 16.345 13.5548C17.8821 13.5149 18.0806 13.4958 18.2299 13.3734C18.4827 13.1662 18.4523 12.8112 18.1626 12.5907C17.9268 12.4112 17.14 12.1145 16.5077 11.9667L16.1662 11.8869L16.1903 8.42586C16.2136 5.06255 16.2192 4.95403 16.3869 4.58379C16.648 4.0075 17.0544 3.60581 17.6404 3.34474C18.2582 3.06956 18.8483 2.9975 20.5197 2.99315L21.7299 2.98999V17.4598V31.9296L20.4006 31.9288C19.0063 31.9278 18.5492 31.8633 17.8883 31.5738C17.014 31.1908 16.41 30.403 16.2571 29.4462C16.2115 29.1608 16.177 27.1476 16.1759 24.7127C16.1741 20.6062 16.1692 20.4687 16.0156 20.2407C15.9284 20.1113 15.7589 19.9682 15.6389 19.9226C15.5067 19.8725 14.6699 19.8235 13.516 19.7985C11.6694 19.7583 11.5977 19.7512 11.1626 19.567C10.3417 19.2194 9.81686 18.5697 9.70548 17.7631L9.64874 17.3521H12.3587C15.3291 17.3521 15.564 17.3243 15.6648 16.961C15.7548 16.6367 15.6073 16.552 13.9126 15.9553C12.684 15.5227 12.5968 15.5107 12.3038 15.7338C11.9384 16.012 11.521 16.1419 10.9845 16.1445C10.3173 16.1478 9.89672 16.03 9.49728 15.728C9.20921 15.5102 9.11572 15.4773 8.88318 15.5114C8.40128 15.5822 7.75865 15.9216 7.19391 16.4037C6.26492 17.1967 5.78043 18.1869 5.61799 19.6248C5.56063 20.1326 5.53671 22.0817 5.54937 25.2202L5.56876 30.0363L5.3282 30.4982C5.06163 31.0101 4.80361 31.2751 4.2717 31.5834C3.72525 31.9001 2.95229 32.0339 2.2762 31.9291Z" fill="#00FFAB"/>
</g>
<defs>
<clipPath id="clip0_15_192">
<rect width="199" height="32.023" fill="white" transform="translate(0 0.988525)"/>
</clipPath>
</defs>
</svg>
