<svg width="60" height="40" viewBox="0 0 60 40" fill="none" xmlns="http://www.w3.org/2000/svg">
<path d="M2.32346 39.8345C1.45444 39.5688 0.755244 38.9508 0.239916 37.993L0 37.5471V20.0556V2.56429L0.239239 2.04758C0.676307 1.10365 1.68836 0.363162 2.86613 0.125597L3.4888 0L4.11346 0.113448C5.29583 0.328182 6.11952 0.909824 6.70658 1.94456L7.00197 2.46518L7.0527 7.9653L7.10344 13.4654L7.28315 13.7865C7.57475 14.3077 8.75063 14.7339 11.2368 15.2195L11.8184 15.3331L12.4038 15.0434L12.9892 14.7537L13.7634 14.719L14.5374 14.6842L14.981 14.8864C15.225 14.9977 15.5474 15.167 15.6975 15.2626L15.9702 15.4364L16.763 15.1732C17.9767 14.7703 18.6031 14.6873 20.803 14.6379C23.0143 14.5884 23.314 14.5296 23.4914 14.1113L23.6095 13.8326L23.4509 13.5331C23.266 13.1835 22.5991 12.8458 21.432 12.5105L20.6506 12.286V7.91409C20.6506 1.91062 20.861 1.16434 22.764 0.413138L23.3398 0.185849L32.1177 0.156169C45.5796 0.11065 47.7539 0.482025 52.1489 3.57755C62.7499 11.044 62.5831 29.2081 51.8441 36.7649C47.7317 39.6587 45.9047 39.9757 33.3501 39.9735L24.5577 39.972L23.9213 39.8256C20.9052 39.131 20.6527 38.3535 20.6515 29.7562L20.6506 24.0464L20.44 23.7846C20.0505 23.3012 19.9325 23.28 17.302 23.2234L14.8158 23.1698L14.2576 22.9158C13.2378 22.4518 12.5221 21.4756 12.3969 20.3777L12.3489 19.9565L13.2271 19.9456C13.7101 19.9393 15.274 19.9219 16.7021 19.9067L19.2988 19.879L19.6181 19.7178C20.0153 19.5172 20.1372 19.1335 19.8886 18.8656C19.7098 18.6723 16.8831 17.5309 16.3035 17.4178L15.9898 17.3565L15.6564 17.6309C14.6981 18.4202 12.7622 18.3474 11.984 17.493C10.9692 16.3787 7.92592 19.1647 7.29026 21.7899L7.1223 22.4835L7.06212 30.0153L7.00197 37.5471L6.71779 38.1121C5.96927 39.6007 4.03682 40.358 2.32346 39.8345ZM42.7235 33.553C49.0752 32.381 52.7059 28.058 53.2265 21.0467C53.759 13.8756 49.8797 8.32207 43.3817 6.95316L42.4176 6.75007L36.2434 6.70496C28.7549 6.65024 28.4983 6.67809 27.9809 7.60147L27.8049 7.91574L27.8074 11.632L27.8098 15.3484L27.9926 15.9854C28.2172 16.7695 28.57 17.4627 28.9718 17.9096C29.1393 18.096 29.2766 18.2871 29.2771 18.3345C29.2776 18.3817 29.3803 18.4698 29.5054 18.5301C29.6306 18.5904 29.9477 18.7603 30.2102 18.9076C31.7169 19.7531 32.5984 19.8635 37.8511 19.8646C40.2511 19.8649 42.3403 19.8894 42.4939 19.9187L42.773 19.9723V20.358C42.773 21.2995 41.9729 22.341 40.8449 22.8688L40.1853 23.1773L34.5024 23.2269L28.8197 23.2765L28.5036 23.4456C28.3298 23.5385 28.1013 23.7837 27.9962 23.9904L27.8049 24.3666V28.4792V32.592L28.0305 33.0039C28.255 33.4138 28.6646 33.6462 29.3777 33.7679C29.5173 33.7916 32.3258 33.7995 35.6188 33.7852L41.6059 33.7592L42.7235 33.553Z" fill="#00FFAB"/>
</svg>
