<svg width="28" height="28" viewBox="0 0 28 28" fill="none" xmlns="http://www.w3.org/2000/svg">
<path d="M11.6665 9.04164C11.6668 8.88623 11.7085 8.73369 11.7873 8.59973C11.866 8.46576 11.9791 8.3552 12.1147 8.2794C12.2504 8.2036 12.4038 8.16531 12.5592 8.16845C12.7146 8.1716 12.8663 8.21608 12.9988 8.2973L17.2735 10.9211C17.4009 10.9994 17.5061 11.1091 17.5791 11.2396C17.6521 11.3701 17.6904 11.5171 17.6904 11.6666C17.6904 11.8162 17.6521 11.9632 17.5791 12.0937C17.5061 12.2242 17.4009 12.3339 17.2735 12.4121L12.9988 15.0371C12.8662 15.1185 12.7142 15.163 12.5586 15.166C12.4031 15.169 12.2495 15.1305 12.1137 15.0545C11.978 14.9784 11.865 14.8675 11.7864 14.7332C11.7078 14.5989 11.6664 14.4461 11.6665 14.2905V9.04164Z" stroke="url(#paint0_linear_65_417)" stroke-width="1.75" stroke-linecap="round" stroke-linejoin="round"/>
<path d="M14 19.8333V24.5" stroke="url(#paint1_linear_65_417)" stroke-width="1.75" stroke-linecap="round" stroke-linejoin="round"/>
<path d="M9.3335 24.5H18.6668" stroke="url(#paint2_linear_65_417)" stroke-width="1.75" stroke-linecap="round" stroke-linejoin="round"/>
<path d="M23.3335 3.5H4.66683C3.37816 3.5 2.3335 4.54467 2.3335 5.83333V17.5C2.3335 18.7887 3.37816 19.8333 4.66683 19.8333H23.3335C24.6222 19.8333 25.6668 18.7887 25.6668 17.5V5.83333C25.6668 4.54467 24.6222 3.5 23.3335 3.5Z" stroke="url(#paint3_linear_65_417)" stroke-width="1.75" stroke-linecap="round" stroke-linejoin="round"/>
<defs>
<linearGradient id="paint0_linear_65_417" x1="14.6785" y1="8.16827" x2="14.6785" y2="15.1662" gradientUnits="userSpaceOnUse">
<stop stop-color="#00FFAB"/>
<stop offset="1" stop-color="#007F56"/>
</linearGradient>
<linearGradient id="paint1_linear_65_417" x1="14.5" y1="19.8333" x2="14.5" y2="24.5" gradientUnits="userSpaceOnUse">
<stop stop-color="#00FFAB"/>
<stop offset="1" stop-color="#007F56"/>
</linearGradient>
<linearGradient id="paint2_linear_65_417" x1="14.0002" y1="24.5" x2="14.0002" y2="25.5" gradientUnits="userSpaceOnUse">
<stop stop-color="#00FFAB"/>
<stop offset="1" stop-color="#007F56"/>
</linearGradient>
<linearGradient id="paint3_linear_65_417" x1="14.0002" y1="3.5" x2="14.0002" y2="19.8333" gradientUnits="userSpaceOnUse">
<stop stop-color="#00FFAB"/>
<stop offset="1" stop-color="#007F56"/>
</linearGradient>
</defs>
</svg>
