<svg width="30" height="24" viewBox="0 0 30 24" fill="none" xmlns="http://www.w3.org/2000/svg">
<path d="M29.9536 0.98551C29.9393 0.740827 29.8357 0.509909 29.6624 0.336597C29.4891 0.163285 29.2581 0.0596463 29.0135 0.0453572C22.5424 -0.329704 17.3466 1.63812 15.1137 5.32372C13.6385 7.76036 13.641 10.7196 15.0937 13.5426C14.2668 14.5269 13.6625 15.6784 13.3222 16.9181L11.2881 14.8765C12.2657 12.8349 12.2282 10.7071 11.1631 8.9393C9.51279 6.21511 5.70342 4.75487 0.9739 5.03242C0.729217 5.04671 0.498299 5.15035 0.324987 5.32366C0.151675 5.49697 0.0480362 5.72789 0.0337471 5.97257C-0.245048 10.7021 1.21644 14.5115 3.94063 16.1617C4.83961 16.711 5.87264 17.0017 6.92612 17.0019C7.94866 16.9893 8.95529 16.747 9.8716 16.293L12.9971 19.4185V23.0028C12.9971 23.2681 13.1025 23.5225 13.29 23.7101C13.4776 23.8976 13.732 24.003 13.9973 24.003C14.2625 24.003 14.5169 23.8976 14.7045 23.7101C14.8921 23.5225 14.9974 23.2681 14.9974 23.0028V19.316C14.993 17.7249 15.5344 16.1803 16.5314 14.9403C17.8178 15.6126 19.2445 15.9723 20.6959 15.9905C22.0991 15.995 23.4762 15.6116 24.6753 14.8828C28.3609 12.6524 30.3337 7.45656 29.9536 0.98551ZM4.97205 14.4515C3.05424 13.29 1.96906 10.5408 1.99532 7.00024C5.53589 6.97023 8.28509 8.05916 9.44653 9.97697C10.0529 10.9771 10.1516 12.1436 9.75408 13.345L6.70233 10.2933C6.51324 10.1136 6.26145 10.015 6.00064 10.0183C5.73984 10.0216 5.49066 10.1267 5.30623 10.3111C5.1218 10.4956 5.01671 10.7448 5.01337 11.0056C5.01003 11.2664 5.1087 11.5182 5.28835 11.7073L8.3401 14.759C7.13865 15.1566 5.97346 15.0578 4.97205 14.4515ZM23.6388 13.1737C21.9636 14.1877 19.9945 14.2652 17.9942 13.4238L24.7065 6.71019C24.8862 6.5211 24.9848 6.26931 24.9815 6.0085C24.9782 5.7477 24.8731 5.49852 24.6886 5.31409C24.5042 5.12965 24.255 5.02457 23.9942 5.02123C23.7334 5.01789 23.4816 5.11656 23.2925 5.29621L16.5789 12.0011C15.7338 10.0007 15.8101 8.03041 16.829 6.35638C18.5718 3.48092 22.7049 1.87816 27.997 2.00193C28.1171 7.29279 26.5168 11.431 23.6388 13.1737Z" fill="url(#paint0_linear_37_18)"/>
<defs>
<linearGradient id="paint0_linear_37_18" x1="15" y1="0" x2="15" y2="24.003" gradientUnits="userSpaceOnUse">
<stop stop-color="#00FFAB"/>
<stop offset="1" stop-color="#007F56"/>
</linearGradient>
</defs>
</svg>
