<svg width="32" height="29" viewBox="0 0 32 29" fill="none" xmlns="http://www.w3.org/2000/svg">
<path d="M30.5392 6.82552C30.1892 5.52202 29.1615 4.49902 27.8559 4.15252C25.4892 3.52002 16.0003 3.52002 16.0003 3.52002C16.0003 3.52002 6.51146 3.52002 4.14479 4.15252C2.83924 4.49902 1.81146 5.52202 1.46146 6.82552C0.828125 9.18502 0.828125 14.102 0.828125 14.102C0.828125 14.102 0.828125 19.019 1.46146 21.3785C1.81146 22.682 2.83924 23.661 4.14479 24.0075C6.51146 24.64 16.0003 24.64 16.0003 24.64C16.0003 24.64 25.4892 24.64 27.8559 24.0075C29.1615 23.661 30.1892 22.6765 30.5392 21.3785C31.1726 19.019 31.1726 14.102 31.1726 14.102C31.1726 14.102 31.1726 9.18502 30.5392 6.82552ZM12.9003 18.568V9.63602L20.8281 14.102L12.9003 18.568Z" fill="url(#paint0_linear_177_452)"/>
<defs>
<linearGradient id="paint0_linear_177_452" x1="16.0003" y1="3.52002" x2="16.0003" y2="24.64" gradientUnits="userSpaceOnUse">
<stop stop-color="#00FFAB"/>
<stop offset="1" stop-color="#007F56"/>
</linearGradient>
</defs>
</svg>
