<svg width="16" height="16" viewBox="0 0 16 16" fill="none" xmlns="http://www.w3.org/2000/svg">
<path d="M10.6663 4.66669H2.66634C1.92996 4.66669 1.33301 5.26364 1.33301 6.00002V10C1.33301 10.7364 1.92996 11.3334 2.66634 11.3334H10.6663C11.4027 11.3334 11.9997 10.7364 11.9997 10V6.00002C11.9997 5.26364 11.4027 4.66669 10.6663 4.66669Z" stroke="url(#paint0_linear_157_507)" stroke-width="1.33333" stroke-linecap="round" stroke-linejoin="round"/>
<path d="M14.667 7.33331V8.66665" stroke="url(#paint1_linear_157_507)" stroke-width="1.33333" stroke-linecap="round" stroke-linejoin="round"/>
<path d="M4 7.33331V8.66665" stroke="url(#paint2_linear_157_507)" stroke-width="1.33333" stroke-linecap="round" stroke-linejoin="round"/>
<path d="M6.66699 7.33331V8.66665" stroke="url(#paint3_linear_157_507)" stroke-width="1.33333" stroke-linecap="round" stroke-linejoin="round"/>
<path d="M9.33301 7.33331V8.66665" stroke="url(#paint4_linear_157_507)" stroke-width="1.33333" stroke-linecap="round" stroke-linejoin="round"/>
<defs>
<linearGradient id="paint0_linear_157_507" x1="6.66634" y1="4.66669" x2="6.66634" y2="11.3334" gradientUnits="userSpaceOnUse">
<stop stop-color="#00FFAB"/>
<stop offset="1" stop-color="#007F56"/>
</linearGradient>
<linearGradient id="paint1_linear_157_507" x1="15.167" y1="7.33331" x2="15.167" y2="8.66665" gradientUnits="userSpaceOnUse">
<stop stop-color="#00FFAB"/>
<stop offset="1" stop-color="#007F56"/>
</linearGradient>
<linearGradient id="paint2_linear_157_507" x1="4.5" y1="7.33331" x2="4.5" y2="8.66665" gradientUnits="userSpaceOnUse">
<stop stop-color="#00FFAB"/>
<stop offset="1" stop-color="#007F56"/>
</linearGradient>
<linearGradient id="paint3_linear_157_507" x1="7.16699" y1="7.33331" x2="7.16699" y2="8.66665" gradientUnits="userSpaceOnUse">
<stop stop-color="#00FFAB"/>
<stop offset="1" stop-color="#007F56"/>
</linearGradient>
<linearGradient id="paint4_linear_157_507" x1="9.83301" y1="7.33331" x2="9.83301" y2="8.66665" gradientUnits="userSpaceOnUse">
<stop stop-color="#00FFAB"/>
<stop offset="1" stop-color="#007F56"/>
</linearGradient>
</defs>
</svg>
