<svg width="16" height="16" viewBox="0 0 16 16" fill="none" xmlns="http://www.w3.org/2000/svg">
<path d="M9.66683 2.66675H6.3335L4.66683 4.66675H2.66683C2.31321 4.66675 1.97407 4.80722 1.72402 5.05727C1.47397 5.30732 1.3335 5.64646 1.3335 6.00008V12.0001C1.3335 12.3537 1.47397 12.6928 1.72402 12.9429C1.97407 13.1929 2.31321 13.3334 2.66683 13.3334H13.3335C13.6871 13.3334 14.0263 13.1929 14.2763 12.9429C14.5264 12.6928 14.6668 12.3537 14.6668 12.0001V6.00008C14.6668 5.64646 14.5264 5.30732 14.2763 5.05727C14.0263 4.80722 13.6871 4.66675 13.3335 4.66675H11.3335L9.66683 2.66675Z" stroke="url(#paint0_linear_133_472)" stroke-width="1.33333" stroke-linecap="round" stroke-linejoin="round"/>
<path d="M8 10.6667C9.10457 10.6667 10 9.77132 10 8.66675C10 7.56218 9.10457 6.66675 8 6.66675C6.89543 6.66675 6 7.56218 6 8.66675C6 9.77132 6.89543 10.6667 8 10.6667Z" stroke="url(#paint1_linear_133_472)" stroke-width="1.33333" stroke-linecap="round" stroke-linejoin="round"/>
<defs>
<linearGradient id="paint0_linear_133_472" x1="8.00016" y1="2.66675" x2="8.00016" y2="13.3334" gradientUnits="userSpaceOnUse">
<stop stop-color="#00FFAB"/>
<stop offset="1" stop-color="#007F56"/>
</linearGradient>
<linearGradient id="paint1_linear_133_472" x1="8" y1="6.66675" x2="8" y2="10.6667" gradientUnits="userSpaceOnUse">
<stop stop-color="#00FFAB"/>
<stop offset="1" stop-color="#007F56"/>
</linearGradient>
</defs>
</svg>
