<svg width="16" height="16" viewBox="0 0 16 16" fill="none" xmlns="http://www.w3.org/2000/svg">
<g clip-path="url(#clip0_157_522)">
<path d="M7.99967 14.6666C11.6816 14.6666 14.6663 11.6819 14.6663 7.99998C14.6663 4.31808 11.6816 1.33331 7.99967 1.33331C4.31778 1.33331 1.33301 4.31808 1.33301 7.99998C1.33301 11.6819 4.31778 14.6666 7.99967 14.6666Z" stroke="url(#paint0_linear_157_522)" stroke-width="1.33333" stroke-linecap="round" stroke-linejoin="round"/>
<path d="M14.6667 8H12" stroke="url(#paint1_linear_157_522)" stroke-width="1.33333" stroke-linecap="round" stroke-linejoin="round"/>
<path d="M3.99967 8H1.33301" stroke="url(#paint2_linear_157_522)" stroke-width="1.33333" stroke-linecap="round" stroke-linejoin="round"/>
<path d="M8 3.99998V1.33331" stroke="url(#paint3_linear_157_522)" stroke-width="1.33333" stroke-linecap="round" stroke-linejoin="round"/>
<path d="M8 14.6667V12" stroke="url(#paint4_linear_157_522)" stroke-width="1.33333" stroke-linecap="round" stroke-linejoin="round"/>
</g>
<defs>
<linearGradient id="paint0_linear_157_522" x1="7.99967" y1="1.33331" x2="7.99967" y2="14.6666" gradientUnits="userSpaceOnUse">
<stop stop-color="#00FFAB"/>
<stop offset="1" stop-color="#007F56"/>
</linearGradient>
<linearGradient id="paint1_linear_157_522" x1="13.3333" y1="8" x2="13.3333" y2="9" gradientUnits="userSpaceOnUse">
<stop stop-color="#00FFAB"/>
<stop offset="1" stop-color="#007F56"/>
</linearGradient>
<linearGradient id="paint2_linear_157_522" x1="2.66634" y1="8" x2="2.66634" y2="9" gradientUnits="userSpaceOnUse">
<stop stop-color="#00FFAB"/>
<stop offset="1" stop-color="#007F56"/>
</linearGradient>
<linearGradient id="paint3_linear_157_522" x1="8.5" y1="1.33331" x2="8.5" y2="3.99998" gradientUnits="userSpaceOnUse">
<stop stop-color="#00FFAB"/>
<stop offset="1" stop-color="#007F56"/>
</linearGradient>
<linearGradient id="paint4_linear_157_522" x1="8.5" y1="12" x2="8.5" y2="14.6667" gradientUnits="userSpaceOnUse">
<stop stop-color="#00FFAB"/>
<stop offset="1" stop-color="#007F56"/>
</linearGradient>
<clipPath id="clip0_157_522">
<rect width="16" height="16" fill="white"/>
</clipPath>
</defs>
</svg>
