<svg width="24" height="24" viewBox="0 0 24 24" fill="none" xmlns="http://www.w3.org/2000/svg">
<path d="M11.9983 6.49454C10.9097 6.49454 9.84565 6.81733 8.94057 7.42209C8.03548 8.02685 7.33005 8.88641 6.91349 9.89209C6.49692 10.8978 6.38793 12.0044 6.60029 13.072C6.81266 14.1396 7.33684 15.1203 8.10655 15.89C8.87626 16.6597 9.85693 17.1839 10.9246 17.3963C11.9922 17.6086 13.0988 17.4996 14.1045 17.0831C15.1101 16.6665 15.9697 15.9611 16.5745 15.056C17.1792 14.1509 17.502 13.0868 17.502 11.9983C17.5005 10.5391 16.9202 9.14005 15.8883 8.10822C14.8565 7.0764 13.4575 6.49606 11.9983 6.49454ZM11.9983 15.6674C11.2726 15.6674 10.5632 15.4522 9.9598 15.0491C9.35641 14.6459 8.88613 14.0729 8.60842 13.4024C8.33071 12.732 8.25805 11.9942 8.39962 11.2825C8.5412 10.5707 8.89065 9.91693 9.40379 9.40379C9.91693 8.89065 10.5707 8.5412 11.2825 8.39962C11.9942 8.25805 12.732 8.33071 13.4024 8.60842C14.0729 8.88613 14.6459 9.35641 15.0491 9.9598C15.4522 10.5632 15.6674 11.2726 15.6674 11.9983C15.6674 12.9714 15.2809 13.9047 14.5928 14.5928C13.9047 15.2809 12.9714 15.6674 11.9983 15.6674ZM22.0885 12.2459C22.0931 12.0808 22.0931 11.9157 22.0885 11.7506L23.7992 9.61333C23.8889 9.50111 23.951 9.36939 23.9805 9.22878C24.01 9.08818 24.006 8.94261 23.9689 8.80382C23.6885 7.74962 23.2689 6.73745 22.7214 5.79396C22.6497 5.67049 22.5502 5.56546 22.4307 5.48723C22.3113 5.409 22.1753 5.35973 22.0334 5.34334L19.3137 5.04063C19.2005 4.92139 19.0859 4.80673 18.9697 4.69665L18.6486 1.97C18.6321 1.82807 18.5827 1.69195 18.5042 1.57251C18.4258 1.45307 18.3206 1.3536 18.1969 1.28204C17.253 0.735501 16.2409 0.316399 15.187 0.035669C15.0481 -0.00125546 14.9025 -0.00503208 14.7619 0.0246435C14.6213 0.0543191 14.4896 0.116617 14.3775 0.206514L12.2459 1.90809C12.0808 1.90809 11.9157 1.90809 11.7506 1.90809L9.61333 0.200781C9.50111 0.11108 9.36939 0.0489902 9.22878 0.0195146C9.08818 -0.00996108 8.94261 -0.00599883 8.80382 0.0310824C7.74979 0.312034 6.73768 0.731529 5.79396 1.2786C5.67049 1.35029 5.56546 1.44982 5.48723 1.56925C5.409 1.68869 5.35973 1.82473 5.34334 1.96656L5.04063 4.69092C4.92139 4.80481 4.80673 4.91948 4.69665 5.0349L1.97 5.34793C1.82807 5.36444 1.69195 5.41388 1.57251 5.49232C1.45307 5.57075 1.3536 5.67601 1.28204 5.79969C0.735501 6.74354 0.316399 7.75563 0.035669 8.80955C-0.00125546 8.94843 -0.00503208 9.09405 0.0246435 9.23466C0.0543191 9.37527 0.116617 9.50694 0.206514 9.61906L1.90809 11.7506C1.90809 11.9157 1.90809 12.0808 1.90809 12.2459L0.200781 14.3832C0.11108 14.4955 0.0489902 14.6272 0.0195146 14.7678C-0.00996108 14.9084 -0.00599883 15.0539 0.0310824 15.1927C0.311532 16.2469 0.731054 17.2591 1.2786 18.2026C1.35029 18.3261 1.44982 18.4311 1.56925 18.5093C1.68869 18.5876 1.82473 18.6368 1.96656 18.6532L4.68633 18.9559C4.80023 19.0752 4.91489 19.1898 5.03031 19.2999L5.34793 22.0266C5.36444 22.1685 5.41388 22.3046 5.49232 22.4241C5.57075 22.5435 5.67601 22.643 5.79969 22.7145C6.74354 23.2611 7.75563 23.6802 8.80955 23.9609C8.94843 23.9978 9.09405 24.0016 9.23466 23.9719C9.37527 23.9422 9.50694 23.8799 9.61906 23.79L11.7506 22.0885C11.9157 22.0931 12.0808 22.0931 12.2459 22.0885L14.3832 23.7992C14.4955 23.8889 14.6272 23.951 14.7678 23.9805C14.9084 24.01 15.0539 24.006 15.1927 23.9689C16.2469 23.6885 17.2591 23.2689 18.2026 22.7214C18.3261 22.6497 18.4311 22.5502 18.5093 22.4307C18.5876 22.3113 18.6368 22.1753 18.6532 22.0334L18.9559 19.3137C19.0752 19.2005 19.1898 19.0859 19.2999 18.9697L22.0266 18.6486C22.1685 18.6321 22.3046 18.5827 22.4241 18.5042C22.5435 18.4258 22.643 18.3206 22.7145 18.1969C23.2611 17.253 23.6802 16.2409 23.9609 15.187C23.9978 15.0481 24.0016 14.9025 23.9719 14.7619C23.9422 14.6213 23.8799 14.4896 23.79 14.3775L22.0885 12.2459ZM20.2424 11.5007C20.2619 11.8321 20.2619 12.1644 20.2424 12.4959C20.2288 12.7228 20.2999 12.9468 20.4419 13.1243L22.069 15.1572C21.8823 15.7505 21.6432 16.3261 21.3546 16.8771L18.7633 17.1707C18.5376 17.1957 18.3293 17.3036 18.1785 17.4734C17.9578 17.7216 17.7227 17.9567 17.4745 18.1774C17.3047 18.3281 17.1968 18.5365 17.1718 18.7621L16.884 21.3512C16.333 21.6399 15.7575 21.879 15.1641 22.0655L13.13 20.4385C12.9672 20.3084 12.765 20.2377 12.5567 20.2378H12.5016C12.1702 20.2573 11.8379 20.2573 11.5064 20.2378C11.2794 20.2242 11.0555 20.2953 10.878 20.4374L8.83936 22.0655C8.24603 21.8788 7.67046 21.6398 7.11944 21.3512L6.82591 18.7633C6.80086 18.5376 6.693 18.3293 6.5232 18.1785C6.27497 17.9578 6.0399 17.7227 5.81918 17.4745C5.66844 17.3047 5.46008 17.1968 5.23441 17.1718L2.64536 16.8829C2.35663 16.3319 2.11757 15.7563 1.93102 15.1629L3.55806 13.1288C3.70013 12.9514 3.77123 12.7274 3.75757 12.5005C3.73808 12.169 3.73808 11.8367 3.75757 11.5052C3.77123 11.2783 3.70013 11.0544 3.55806 10.8769L1.93102 8.83936C2.11772 8.24603 2.35677 7.67046 2.64536 7.11944L5.23327 6.82591C5.45894 6.80086 5.6673 6.693 5.81804 6.5232C6.03875 6.27497 6.27383 6.0399 6.52206 5.81918C6.69253 5.66834 6.80083 5.45951 6.82591 5.23327L7.11371 2.64536C7.66466 2.35663 8.24024 2.11757 8.83363 1.93102L10.8677 3.55806C11.0452 3.70013 11.2691 3.77123 11.4961 3.75757C11.8275 3.73808 12.1599 3.73808 12.4913 3.75757C12.7183 3.77123 12.9422 3.70013 13.1197 3.55806L15.1572 1.93102C15.7505 2.11772 16.3261 2.35677 16.8771 2.64536L17.1707 5.23327C17.1957 5.45894 17.3036 5.6673 17.4734 5.81804C17.7216 6.03875 17.9567 6.27383 18.1774 6.52206C18.3281 6.69186 18.5365 6.79971 18.7621 6.82476L21.3512 7.11256C21.6399 7.66351 21.879 8.2391 22.0655 8.83248L20.4385 10.8666C20.2951 11.0456 20.2239 11.2718 20.239 11.5007H20.2424Z" fill="url(#paint0_linear_37_20)"/>
<defs>
<linearGradient id="paint0_linear_37_20" x1="12" y1="0" x2="12" y2="24" gradientUnits="userSpaceOnUse">
<stop stop-color="#00FFAB"/>
<stop offset="1" stop-color="#007F56"/>
</linearGradient>
</defs>
</svg>
