<svg width="32" height="32" viewBox="0 0 32 32" fill="none" xmlns="http://www.w3.org/2000/svg">
<path d="M4 14.6666H8C8.70724 14.6666 9.38552 14.9476 9.88562 15.4477C10.3857 15.9478 10.6667 16.626 10.6667 17.3333V21.3333C10.6667 22.0405 10.3857 22.7188 9.88562 23.2189C9.38552 23.719 8.70724 24 8 24H6.66667C5.95942 24 5.28115 23.719 4.78105 23.2189C4.28095 22.7188 4 22.0405 4 21.3333V14.6666ZM4 14.6666C4 13.0908 4.31039 11.5303 4.91345 10.0744C5.5165 8.61852 6.40042 7.29565 7.51472 6.18134C8.62902 5.06704 9.95189 4.18313 11.4078 3.58007C12.8637 2.97702 14.4241 2.66663 16 2.66663C17.5759 2.66663 19.1363 2.97702 20.5922 3.58007C22.0481 4.18313 23.371 5.06704 24.4853 6.18134C25.5996 7.29565 26.4835 8.61852 27.0866 10.0744C27.6896 11.5303 28 13.0908 28 14.6666M28 14.6666V21.3333C28 22.0405 27.719 22.7188 27.219 23.2189C26.7189 23.719 26.0406 24 25.3333 24H24C23.2928 24 22.6145 23.719 22.1144 23.2189C21.6143 22.7188 21.3333 22.0405 21.3333 21.3333V17.3333C21.3333 16.626 21.6143 15.9478 22.1144 15.4477C22.6145 14.9476 23.2928 14.6666 24 14.6666H28Z" stroke="url(#paint0_linear_161_915)" stroke-width="2.66667" stroke-linecap="round" stroke-linejoin="round"/>
<path d="M28 21.3334V24C28 25.4145 27.4381 26.7711 26.4379 27.7713C25.4377 28.7715 24.0812 29.3334 22.6667 29.3334H16" stroke="url(#paint1_linear_161_915)" stroke-width="2.66667" stroke-linecap="round" stroke-linejoin="round"/>
<defs>
<linearGradient id="paint0_linear_161_915" x1="16" y1="2.66663" x2="16" y2="24" gradientUnits="userSpaceOnUse">
<stop stop-color="#00FFAB"/>
<stop offset="1" stop-color="#007F56"/>
</linearGradient>
<linearGradient id="paint1_linear_161_915" x1="22" y1="21.3334" x2="22" y2="29.3334" gradientUnits="userSpaceOnUse">
<stop stop-color="#00FFAB"/>
<stop offset="1" stop-color="#007F56"/>
</linearGradient>
</defs>
</svg>
