<svg width="16" height="16" viewBox="0 0 16 16" fill="none" xmlns="http://www.w3.org/2000/svg">
<path d="M0.846304 15.3334C0.701723 14.9668 0.553988 14.5505 0.518005 14.4083C0.482021 14.2661 0.350944 13.5383 0.226723 12.791C-0.0199377 11.307 -0.0432925 11.0069 0.0518868 10.545C0.183761 9.9049 0.424131 9.50447 1.0747 8.8411L1.53766 8.36904L1.54829 7.75703L1.55893 7.14501L1.67891 6.9024C1.82342 6.61016 2.00958 6.42794 2.3081 6.2865L2.52268 6.18482H8.00167H13.4807L13.7234 6.30482C14.0158 6.44934 14.1979 6.63538 14.3394 6.93408C14.4408 7.14814 14.4411 7.15026 14.4517 7.75887L14.4623 8.36904L14.9253 8.8411C15.5759 9.50447 15.8162 9.9049 15.9481 10.545C16.0433 11.0069 16.0199 11.307 15.7733 12.791C15.6491 13.5383 15.518 14.2661 15.482 14.4083C15.446 14.5505 15.2983 14.9668 15.1537 15.3334L14.8908 15.9999L13.14 16L11.3892 16L11.2915 15.7511L11.1939 15.5022H8H4.8061L4.70845 15.7511L4.61081 16L2.85999 16L1.10918 15.9999L0.846304 15.3334ZM4.31776 15.1086C4.47928 14.6746 4.5564 14.3492 4.59669 13.9315C4.62727 13.6145 4.61813 13.4074 4.51509 12.0837C4.45127 11.2637 4.3866 10.5696 4.37138 10.5411C4.27164 10.3547 4.04086 10.3065 3.90392 10.4435C3.84213 10.5053 3.78766 10.6673 3.65032 11.1975C3.41875 12.0915 3.11972 12.8823 2.90849 13.1593C2.73584 13.3856 2.36349 13.4854 2.04453 13.3906C1.87067 13.339 1.63377 13.1021 1.58213 12.9282C1.55333 12.8312 1.54254 12.3219 1.54164 11.0165L1.54041 9.23707L1.27661 9.51299C0.853712 9.95531 0.669093 10.3375 0.604197 10.9048C0.571462 11.191 0.575475 11.2252 0.80241 12.5945C1.07068 14.2133 1.09913 14.3384 1.33994 14.9586L1.51984 15.4219H2.86051H4.20118L4.31776 15.1086ZM14.6601 14.9586C14.9009 14.3384 14.9293 14.2133 15.1976 12.5945C15.4245 11.2252 15.4285 11.191 15.3958 10.9048C15.3309 10.3375 15.1463 9.95531 14.7234 9.51299L14.4596 9.23707L14.4584 11.0165C14.4575 12.3219 14.4467 12.8312 14.4179 12.9282C14.3662 13.1021 14.1293 13.339 13.9555 13.3906C13.6365 13.4854 13.2642 13.3856 13.0915 13.1593C12.8803 12.8823 12.5813 12.0915 12.3497 11.1975C12.2123 10.6673 12.1579 10.5053 12.0961 10.4435C11.9591 10.3065 11.7284 10.3547 11.6286 10.5411C11.6134 10.5696 11.5484 11.2637 11.4842 12.0837C11.3799 13.416 11.3713 13.6124 11.4026 13.9315C11.4438 14.35 11.5212 14.6759 11.6822 15.1086L11.7988 15.4219H13.1395H14.4802L14.6601 14.9586ZM10.9374 14.7618C10.7933 14.2829 10.7643 13.6041 10.845 12.6017C10.8726 12.2595 10.8906 11.9508 10.8852 11.9158C10.8778 11.8692 10.8167 11.8318 10.6552 11.7756C10.0418 11.5619 9.54048 11.0517 9.34478 10.4419C9.24884 10.143 9.22899 9.65282 9.29991 9.33402C9.46757 8.58029 10.0631 7.9665 10.8127 7.77474C11.9367 7.48726 13.0809 8.1586 13.3658 9.27272C13.5181 9.86818 13.4027 10.5085 13.0552 10.9971L12.9459 11.1507L13.0431 11.4841C13.1416 11.8225 13.3662 12.4095 13.4899 12.652C13.5789 12.8264 13.6641 12.8734 13.7681 12.8053C13.8108 12.7773 13.8537 12.722 13.8634 12.6825C13.8731 12.643 13.877 11.4178 13.8719 9.95998L13.8628 7.30934L13.7916 7.17624C13.6962 6.99772 13.4889 6.82593 13.3167 6.78255C13.1089 6.73022 2.88173 6.73259 2.67357 6.78501C2.46425 6.83773 2.21175 7.09025 2.15904 7.2996C2.10921 7.49756 2.10441 12.6318 2.15398 12.7244C2.24669 12.8977 2.40074 12.8664 2.51008 12.652C2.63438 12.4083 2.85859 11.8218 2.95834 11.4793C3.05653 11.1422 3.05664 11.141 2.99358 11.0727C2.87418 10.9433 2.69953 10.5813 2.63523 10.3299C2.34742 9.20443 3.01756 8.05948 4.13074 7.77474C4.86071 7.58802 5.60924 7.79346 6.14125 8.32652C6.57599 8.76213 6.77064 9.27717 6.73873 9.90744C6.71047 10.4658 6.52404 10.8888 6.13538 11.2765C5.8935 11.5177 5.65772 11.6666 5.34484 11.7756C5.18334 11.8318 5.12216 11.8692 5.11485 11.9158C5.10937 11.9508 5.12744 12.2595 5.155 12.6017C5.23574 13.6041 5.20671 14.2829 5.0626 14.7618L5.01866 14.9078H8H10.9813L10.9374 14.7618ZM5.65487 13.3978V12.3375H6.715H7.77512V13.3978V14.458H6.715H5.65487V13.3978ZM7.19687 13.3978V12.9158H6.715H6.23312V13.3978V13.8797H6.715H7.19687V13.3978ZM8.22488 13.3978V12.3375H9.285H10.3451V13.3978V14.458H9.285H8.22488V13.3978ZM9.76688 13.3978V12.9158H9.285H8.80313V13.3978V13.8797H9.285H9.76688V13.3978ZM7.19687 11.5986V11.3094H7.486H7.77512V11.5986V11.8877H7.486H7.19687V11.5986ZM8.22488 11.5986V11.3094H8.514H8.80313V11.5986V11.8877H8.514H8.22488V11.5986ZM7.19687 10.5704V10.2813H7.486H7.77512V10.5704V10.8596H7.486H7.19687V10.5704ZM8.22488 10.5704V10.2813H8.514H8.80313V10.5704V10.8596H8.514H8.22488V10.5704ZM7.19687 9.5423V9.25314H7.486H7.77512V9.5423V9.83146H7.486H7.19687V9.5423ZM8.22488 9.5423V9.25314H8.514H8.80313V9.5423V9.83146H8.514H8.22488V9.5423ZM6.68287 8.00011V7.19689H8H9.31713V8.00011V8.80333H8H6.68287V8.00011ZM8.73888 8.00011V7.77521H8H7.26112V8.00011V8.22501H8H8.73888V8.00011ZM5.34795 11.1248C5.73841 10.9285 6.05974 10.4808 6.13637 10.0265C6.2693 9.23828 5.6975 8.45865 4.88611 8.32178C4.44325 8.24707 3.99748 8.38882 3.64294 8.7171C3.22631 9.10288 3.07554 9.63372 3.21913 10.2093L3.25327 10.3461L3.31735 10.2166C3.35259 10.1453 3.42842 10.0476 3.48586 9.99941C3.57936 9.92096 3.59199 9.88991 3.60649 9.70294C3.63577 9.32506 3.85416 9.00206 4.19318 8.83519C4.32965 8.76803 4.3997 8.75614 4.659 8.75614C5.01529 8.75614 5.19609 8.8249 5.4147 9.04353C5.63331 9.26217 5.70206 9.443 5.70206 9.79933C5.70206 10.0557 5.68986 10.1293 5.62585 10.2591C5.52967 10.4541 5.31817 10.6672 5.14196 10.7466C5.01177 10.8054 5.00681 10.8128 5.0249 10.9221C5.03529 10.9849 5.04395 11.0843 5.04414 11.1429C5.04446 11.2386 5.05188 11.2472 5.11678 11.2271C5.15653 11.2148 5.26056 11.1687 5.34795 11.1248ZM10.9559 11.1407C10.956 11.0833 10.9647 10.9849 10.9751 10.9221C10.9932 10.8128 10.9882 10.8054 10.858 10.7466C10.6818 10.6672 10.4703 10.4541 10.3741 10.2591C10.3101 10.1293 10.2979 10.0557 10.2979 9.79933C10.2979 9.443 10.3667 9.26217 10.5853 9.04353C10.8039 8.8249 10.9847 8.75614 11.341 8.75614C11.6003 8.75614 11.6703 8.76803 11.8068 8.83519C12.1458 9.00206 12.3642 9.32506 12.3935 9.70294C12.408 9.88991 12.4206 9.92096 12.5141 9.99941C12.5716 10.0476 12.6474 10.1453 12.6827 10.2166L12.7467 10.3461L12.7809 10.2093C12.8494 9.93469 12.8565 9.75318 12.8078 9.52218C12.676 8.89642 12.1911 8.42687 11.5681 8.32178C10.7809 8.18898 10.0003 8.7616 9.86363 9.57219C9.75949 10.1896 10.1007 10.8453 10.676 11.1331C10.7991 11.1947 10.9124 11.2451 10.9277 11.2451C10.943 11.2451 10.9557 11.1981 10.9559 11.1407ZM5.02258 10.0805C5.12431 9.9438 5.15014 9.82456 5.11017 9.67611C5.04886 9.44838 4.80062 9.29394 4.56649 9.33787C4.43872 9.36184 4.22559 9.56022 4.20352 9.67572C4.18986 9.74715 4.20519 9.75906 4.37544 9.80924C4.51775 9.85118 4.59881 9.90137 4.71508 10.0195C4.79908 10.1049 4.88514 10.177 4.90633 10.1798C4.92752 10.1826 4.97983 10.1379 5.02258 10.0805ZM11.2699 10.0249C11.3946 9.9046 11.4829 9.851 11.6251 9.80907C11.8125 9.75385 11.8141 9.75232 11.7871 9.65824C11.7255 9.44329 11.4704 9.29311 11.244 9.33841C11.1852 9.35017 11.0856 9.41219 11.0198 9.47804C10.8953 9.6025 10.8459 9.74802 10.8796 9.89082C10.9011 9.98194 11.0391 10.1849 11.0795 10.1849C11.0929 10.1849 11.1786 10.1129 11.2699 10.0249ZM6.47406 5.6741C6.35568 5.62086 6.24864 5.50765 6.20314 5.38754C6.18364 5.33606 6.16887 5.05574 6.16887 4.73693V4.17676H4.37377H2.57866L2.53829 4.27425C2.48347 4.40662 2.24918 4.6069 2.0952 4.65304C1.92211 4.70491 0.711153 4.70391 0.534655 4.65175C0.358197 4.59961 0.0920686 4.33345 0.0399326 4.15697C-0.0131449 3.97731 -0.0131449 2.76977 0.0399326 2.59011C0.0920686 2.41363 0.358197 2.14747 0.534655 2.09533C0.60738 2.07384 0.748329 2.05625 0.847874 2.05625H1.02887V1.31729V0.578321H0.514865H0.000864782V0.289161V0H1.31799H2.63512V0.289161V0.578321H2.12112H1.60712V1.31729V2.05625H1.78811C1.88765 2.05625 2.02584 2.07326 2.0952 2.09404C2.24918 2.14018 2.48347 2.34046 2.53829 2.47283L2.57866 2.57032H3.65077H4.72287L4.98025 2.05625L5.23762 1.54219H8H10.7624L11.0198 2.05625L11.2771 2.57032H12.3492H13.4213L13.4617 2.47283C13.5165 2.34046 13.7508 2.14018 13.9048 2.09404C13.9742 2.07326 14.1123 2.05625 14.2119 2.05625H14.3929V1.31729V0.578321H13.8789H13.3649V0.289161V0H14.682H15.9991V0.289161V0.578321H15.4851H14.9711V1.31729V2.05625H15.1582C15.4372 2.05625 15.6209 2.13162 15.7839 2.3129C15.8603 2.39787 15.9399 2.52475 15.9609 2.59487C16.0132 2.7693 16.0125 3.97942 15.9601 4.15697C15.9079 4.33345 15.6418 4.59961 15.4653 4.65175C15.2888 4.70391 14.0779 4.70491 13.9048 4.65304C13.7508 4.6069 13.5165 4.40662 13.4617 4.27425L13.4213 4.17676H11.6282H9.83502L9.82504 4.78497C9.81413 5.45038 9.80672 5.47769 9.59391 5.63665C9.50773 5.70103 9.46393 5.70309 8.03783 5.71016C6.86342 5.71598 6.55119 5.70878 6.47406 5.6741ZM7.32537 5.1295C7.32537 5.12338 7.30008 5.06917 7.26916 5.00902C7.23033 4.9335 7.21294 4.82511 7.21294 4.6587C7.21294 4.49228 7.23033 4.3839 7.26916 4.30838C7.30008 4.24823 7.32537 4.19401 7.32537 4.18789C7.32537 4.18177 7.19527 4.17676 7.03625 4.17676H6.74712V4.6587V5.14063H7.03625C7.19527 5.14063 7.32537 5.13562 7.32537 5.1295ZM9.25288 4.6587V4.17676H8.96375C8.80473 4.17676 8.67463 4.18177 8.67463 4.18789C8.67463 4.19401 8.69992 4.24823 8.73084 4.30838C8.76967 4.3839 8.78706 4.49228 8.78706 4.6587C8.78706 4.82511 8.76967 4.9335 8.73084 5.00902C8.69992 5.06917 8.67463 5.12338 8.67463 5.1295C8.67463 5.13562 8.80473 5.14063 8.96375 5.14063H9.25288V4.6587ZM8.0788 4.85205C8.24718 4.78802 8.24858 4.52991 8.08089 4.46614C7.90439 4.39903 7.74043 4.56325 7.80758 4.73988C7.8326 4.80571 7.8831 4.84495 7.98988 4.88156C7.99314 4.88269 8.03316 4.8694 8.0788 4.85205ZM1.98352 4.03907C2.03445 3.98806 2.0408 3.91418 2.0408 3.37354C2.0408 2.83255 2.03447 2.75905 1.98344 2.70801C1.93241 2.65697 1.85892 2.65064 1.31799 2.65064C0.777425 2.65064 0.703541 2.657 0.652544 2.70793C0.602776 2.75763 0.593851 2.83858 0.585162 3.3191C0.574454 3.91121 0.594772 4.03015 0.71518 4.08023C0.755191 4.09688 1.04405 4.10733 1.35708 4.10347C1.85482 4.09732 1.93342 4.08924 1.98352 4.03907ZM15.3475 4.03907C15.3985 3.98806 15.4048 3.91418 15.4048 3.37354C15.4048 2.83255 15.3985 2.75905 15.3475 2.70801C15.2964 2.65697 15.2229 2.65064 14.682 2.65064C14.1414 2.65064 14.0676 2.657 14.0166 2.70793C13.9668 2.75763 13.9579 2.83858 13.9492 3.3191C13.9385 3.91121 13.9588 4.03015 14.0792 4.08023C14.1192 4.09688 14.4081 4.10733 14.7211 4.10347C15.2188 4.09732 15.2974 4.08924 15.3475 4.03907ZM13.3649 3.37354V3.14864H12.1283H10.8916L10.6343 2.63457L10.3769 2.12051H8H5.62313L5.36575 2.63457L5.10837 3.14864H3.87174H2.63512V3.37354V3.59844H8H13.3649V3.37354ZM6.16887 2.85948V2.57032H6.458H6.74712V2.85948V3.14864H6.458H6.16887V2.85948ZM7.19687 2.85948V2.57032H7.486H7.77512V2.85948V3.14864H7.486H7.19687V2.85948ZM8.22488 2.85948V2.57032H8.514H8.80313V2.85948V3.14864H8.514H8.22488V2.85948ZM9.25288 2.85948V2.57032H9.542H9.83113V2.85948V3.14864H9.542H9.25288V2.85948Z" fill="url(#paint0_linear_149_416)"/>
<defs>
<linearGradient id="paint0_linear_149_416" x1="8" y1="0" x2="8" y2="16" gradientUnits="userSpaceOnUse">
<stop stop-color="#00FFAB"/>
<stop offset="1" stop-color="#007F56"/>
</linearGradient>
</defs>
</svg>
