<svg width="16" height="16" viewBox="0 0 16 16" fill="none" xmlns="http://www.w3.org/2000/svg">
<g clip-path="url(#clip0_177_447)">
<path d="M9.22101 11.0454C9.35869 11.1086 9.51381 11.1231 9.6608 11.0863C9.8078 11.0496 9.9379 10.9639 10.0297 10.8434L10.2663 10.5334C10.3905 10.3678 10.5516 10.2334 10.7367 10.1408C10.9219 10.0482 11.126 10 11.333 10H13.333C13.6866 10 14.0258 10.1405 14.2758 10.3906C14.5259 10.6406 14.6663 10.9798 14.6663 11.3334V13.3334C14.6663 13.687 14.5259 14.0261 14.2758 14.2762C14.0258 14.5262 13.6866 14.6667 13.333 14.6667C10.1504 14.6667 7.09816 13.4024 4.84773 11.152C2.59729 8.90155 1.33301 5.84931 1.33301 2.66671C1.33301 2.31309 1.47348 1.97395 1.72353 1.7239C1.97358 1.47385 2.31272 1.33337 2.66634 1.33337H4.66634C5.01996 1.33337 5.3591 1.47385 5.60915 1.7239C5.8592 1.97395 5.99967 2.31309 5.99967 2.66671V4.66671C5.99967 4.8737 5.95148 5.07785 5.85891 5.26299C5.76634 5.44813 5.63194 5.60918 5.46634 5.73337L5.15434 5.96737C5.03195 6.06083 4.94569 6.19376 4.9102 6.34361C4.87472 6.49345 4.8922 6.65096 4.95967 6.78937C5.8708 8.63995 7.36929 10.1366 9.22101 11.0454Z" stroke="url(#paint0_linear_177_447)" stroke-width="1.33333" stroke-linecap="round" stroke-linejoin="round"/>
</g>
<defs>
<linearGradient id="paint0_linear_177_447" x1="7.99967" y1="1.33337" x2="7.99967" y2="14.6667" gradientUnits="userSpaceOnUse">
<stop stop-color="#00FFAB"/>
<stop offset="1" stop-color="#007F56"/>
</linearGradient>
<clipPath id="clip0_177_447">
<rect width="16" height="16" fill="white"/>
</clipPath>
</defs>
</svg>
