<svg width="16" height="16" viewBox="0 0 16 16" fill="none" xmlns="http://www.w3.org/2000/svg">
<path d="M1.33301 14.6667H14.6663" stroke="url(#paint0_linear_157_513)" stroke-width="1.33333" stroke-linecap="round" stroke-linejoin="round"/>
<path d="M4.23967 11.6L2.66634 11.3333L1.33301 8.66665L2.06634 8.29998C2.25245 8.2062 2.45794 8.15735 2.66634 8.15735C2.87474 8.15735 3.08024 8.2062 3.26634 8.29998L3.37967 8.36665C3.56578 8.46043 3.77128 8.50928 3.97967 8.50928C4.18807 8.50928 4.39357 8.46043 4.57967 8.36665L5.33301 7.99998L3.33301 3.99998L3.93301 3.69998C4.15479 3.59088 4.40254 3.54557 4.64858 3.56911C4.89462 3.59266 5.12927 3.68413 5.32634 3.83331L8.00634 5.83331C8.20409 5.98379 8.43996 6.07601 8.68733 6.09957C8.93471 6.12313 9.18374 6.07709 9.40634 5.96665L12.1997 4.59331C12.5566 4.41337 12.9679 4.37297 13.353 4.47998L13.9997 4.66665C14.1333 4.70375 14.257 4.77016 14.3617 4.86105C14.4664 4.95194 14.5496 5.06502 14.6051 5.19208C14.6607 5.31913 14.6872 5.45697 14.6828 5.59557C14.6784 5.73416 14.6432 5.87004 14.5797 5.99331L14.3263 6.49998C14.173 6.80665 13.9263 7.05998 13.613 7.21998L5.05301 11.4666C4.8013 11.5913 4.51666 11.6333 4.23967 11.5866V11.6Z" stroke="url(#paint1_linear_157_513)" stroke-width="1.33333" stroke-linecap="round" stroke-linejoin="round"/>
<defs>
<linearGradient id="paint0_linear_157_513" x1="7.99967" y1="14.6667" x2="7.99967" y2="15.6667" gradientUnits="userSpaceOnUse">
<stop stop-color="#00FFAB"/>
<stop offset="1" stop-color="#007F56"/>
</linearGradient>
<linearGradient id="paint1_linear_157_513" x1="8.00814" y1="3.56305" x2="8.00814" y2="11.6052" gradientUnits="userSpaceOnUse">
<stop stop-color="#00FFAB"/>
<stop offset="1" stop-color="#007F56"/>
</linearGradient>
</defs>
</svg>
