<svg width="18" height="10" viewBox="0 0 18 10" fill="none" xmlns="http://www.w3.org/2000/svg">
<path d="M11.8125 0.331046C12.159 -0.0538344 12.7365 -0.10719 13.1455 0.192374L13.2246 0.256827L17.6689 4.25683C17.8796 4.44647 18 4.71653 18 4.99999C18 5.28345 17.8796 5.55352 17.6689 5.74316L13.2246 9.74316C12.8141 10.1126 12.182 10.0793 11.8125 9.66894C11.443 9.25843 11.4762 8.62629 11.8867 8.25683L14.3945 5.99999H1C0.447715 5.99999 0 5.55228 0 4.99999C0 4.44771 0.447715 3.99999 1 3.99999H14.3945L11.8867 1.74316L11.8145 1.67089C11.4738 1.2955 11.4661 0.715938 11.8125 0.331046Z" fill="#007F56"/>
</svg>
