<svg width="32" height="29" viewBox="0 0 32 29" fill="none" xmlns="http://www.w3.org/2000/svg">
<path d="M30.5387 6.82552C30.1887 5.52202 29.161 4.49902 27.8554 4.15252C25.4887 3.52002 15.9999 3.52002 15.9999 3.52002C15.9999 3.52002 6.51097 3.52002 4.1443 4.15252C2.83875 4.49902 1.81097 5.52202 1.46097 6.82552C0.827637 9.18502 0.827637 14.102 0.827637 14.102C0.827637 14.102 0.827637 19.019 1.46097 21.3785C1.81097 22.682 2.83875 23.661 4.1443 24.0075C6.51097 24.64 15.9999 24.64 15.9999 24.64C15.9999 24.64 25.4887 24.64 27.8554 24.0075C29.161 23.661 30.1887 22.6765 30.5387 21.3785C31.1721 19.019 31.1721 14.102 31.1721 14.102C31.1721 14.102 31.1721 9.18502 30.5387 6.82552ZM12.8999 18.568V9.63602L20.8276 14.102L12.8999 18.568Z" fill="white"/>
</svg>
