<svg width="17" height="16" viewBox="0 0 17 16" fill="none" xmlns="http://www.w3.org/2000/svg">
<path d="M2.70424 9.33328C2.57631 9.33371 2.45088 9.29833 2.34252 9.23126C2.23416 9.1642 2.14733 9.06818 2.09211 8.95438C2.03688 8.84059 2.01554 8.71367 2.03055 8.58838C2.04556 8.4631 2.09632 8.34459 2.17692 8.24661L8.86987 1.44661C8.92008 1.38947 8.98849 1.35085 9.06389 1.3371C9.13929 1.32335 9.21718 1.33529 9.28479 1.37095C9.3524 1.40661 9.40571 1.46388 9.43596 1.53335C9.46621 1.60283 9.47162 1.68038 9.45128 1.75328L8.15326 5.76661C8.11498 5.86763 8.10213 5.97629 8.1158 6.08328C8.12946 6.19028 8.16925 6.2924 8.23174 6.3809C8.29423 6.46939 8.37755 6.54162 8.47457 6.59139C8.57158 6.64115 8.67939 6.66696 8.78875 6.66661H13.5211C13.6491 6.66618 13.7745 6.70156 13.8829 6.76863C13.9912 6.8357 14.0781 6.93171 14.1333 7.04551C14.1885 7.15931 14.2098 7.28622 14.1948 7.41151C14.1798 7.53679 14.1291 7.65531 14.0485 7.75328L7.35551 14.5533C7.3053 14.6104 7.23689 14.649 7.16149 14.6628C7.0861 14.6765 7.0082 14.6646 6.94059 14.6289C6.87298 14.5933 6.81968 14.536 6.78942 14.4665C6.75917 14.3971 6.75377 14.3195 6.7741 14.2466L8.07213 10.2333C8.1104 10.1323 8.12326 10.0236 8.10959 9.91661C8.09592 9.80962 8.05613 9.70749 7.99364 9.619C7.93116 9.5305 7.84783 9.45827 7.75082 9.40851C7.6538 9.35874 7.54599 9.33293 7.43664 9.33328H2.70424Z" stroke="url(#paint0_linear_133_419)" stroke-width="1.33333" stroke-linecap="round" stroke-linejoin="round"/>
<defs>
<linearGradient id="paint0_linear_133_419" x1="8.11269" y1="1.33154" x2="8.11269" y2="14.6683" gradientUnits="userSpaceOnUse">
<stop stop-color="#00FFAB"/>
<stop offset="1" stop-color="#007F56"/>
</linearGradient>
</defs>
</svg>
